<svg xmlns="http://www.w3.org/2000/svg" xmlns:xlink="http://www.w3.org/1999/xlink" viewBox="0 0 438.77 435.95"><defs><style>.cls-1{opacity:0.19;}.cls-2{fill:#202020;}.cls-3{fill:#010101;}.cls-4,.cls-5{isolation:isolate;}.cls-5{font-size:54px;fill:#31305e;font-family:FeltTipWoman-Bold, Felt Tip Woman;font-weight:700;}.cls-6{letter-spacing:-0.03em;}.cls-7{letter-spacing:-0.06em;}.cls-8{opacity:0.59;}.cls-9{fill:url(#radial-gradient);}</style><radialGradient id="radial-gradient" cx="-641.89" cy="754.02" r="0.5" gradientTransform="matrix(170.89, 0, 0, -169.18, 109919.71, 127794.92)" gradientUnits="userSpaceOnUse"><stop offset="0.3" stop-color="#f26330"/><stop offset="0.54" stop-color="#f89939"/><stop offset="1" stop-color="#fff"/></radialGradient></defs><g id="Layer_2" data-name="Layer 2"><g id="Layer_1-2" data-name="Layer 1"><g class="cls-1"><path class="cls-2" d="M218.7,206.77c.14-2.3.18-4.48.18-4.48a.56.56,0,0,0-.19.07C218.71,204,218.72,205.41,218.7,206.77Z"/><path class="cls-2" d="M220.71,211.35l.12-1.43a.88.88,0,0,1-.18.26C220.67,210.55,220.69,210.91,220.71,211.35Z"/><path class="cls-2" d="M218.68,202.36c-.72.33-1.48,2.14-2.14-.13.08-2.44.05-7.34-.08-9.79-.5-2.41-.78,0-1.18.05-.09-2.42-.29-4.8-.48-4.64-.68-1.5-.7.88-.65,5.57a67.18,67.18,0,0,1,1.44,9.73c.3,3.53.37,7,.45,9.19s.23,3.26.74,2S218.09,209.55,218.68,202.36Z"/><path class="cls-2" d="M218.14,222.1a103.51,103.51,0,0,0,1.77-12.92c-.34-1.39-.69-3.26-1.22-2C218.58,214,218.3,218.05,218.14,222.1Z"/><path class="cls-2" d="M226,303.72c.07.1-.07.3-2,1.65l2-1.65c0-.1-.26-.14.61-.94-6.93,5.89-14.73,13-22.06,20.25-.82,1.08-1.59,2.14-2.27,3.12,18-17.94,37.8-33.92,55.76-45a160.63,160.63,0,0,0-16.75,10.74C236.32,295.47,231.52,299.23,226,303.72Z"/><path class="cls-2" d="M201.75,328.38l-1.8,1.86C201.7,328.68,201.82,328.48,201.75,328.38Z"/><path class="cls-2" d="M142.19,318.35c.88,0,1.77-.19,2.64-.28s1.74-.2,2.6-.35l2.57-.51c.84-.17,1.69-.33,2.52-.58a83.54,83.54,0,0,0,9.69-3.1,134.39,134.39,0,0,0,17.95-8.69A137.56,137.56,0,0,1,161,313.36a74.54,74.54,0,0,1-19.27,4.22,40.87,40.87,0,0,1-4.44.13,24.31,24.31,0,0,1-4-.53,28.12,28.12,0,0,1-7.57-2.81c-4.62-2.52-8-6.15-9.1-9.84,1.18,4.29,5,8.22,9.76,10.72A29,29,0,0,0,134,318a16.5,16.5,0,0,0,2,.32,14.47,14.47,0,0,0,1.95.15c.33,0,.63.05,1,0l1.11,0Z"/><path class="cls-2" d="M233.92,265.93c-1.63,1.53-3.43,2.84-5.08,4.22s-3.38,2.64-5.05,3.9l-2.47,1.87-2.57,1.85-5,3.63c-6.59,4.75-12.79,9.1-18.92,13.21q9.54-6,18.77-12.48c1.54-1.06,3.06-2.18,4.59-3.27s3.12-2.2,4.5-3.3l4.29-3.3c1.4-1.13,2.74-2.31,4.12-3.46l1.48-1.41Z"/><path class="cls-2" d="M218.71,279.4c-14.21,10-26.19,18.33-38.55,25.44a233.32,233.32,0,0,0,20.33-12.29C206.94,288.23,213.06,283.79,218.71,279.4Z"/><path class="cls-2" d="M303.72,311.52a29.14,29.14,0,0,0,9.46-4.48,10.36,10.36,0,0,0,2.8-3.14,9.35,9.35,0,0,0,.09-3.1,8.21,8.21,0,0,1-.2.82,6.64,6.64,0,0,1-1.47,3.08,14,14,0,0,1-4,3.07c-3.63,2-8.72,3.31-14.06,4.1-4.37.77-8.78,1.2-12.53,1.51A84.79,84.79,0,0,0,303.72,311.52Z"/><path class="cls-2" d="M316,303.9a2,2,0,0,1-.14.57l-.13.49a4.11,4.11,0,0,0-.24.69c-.12.34-.11.44,0,.38a4.07,4.07,0,0,0,1.19-1.79,3.59,3.59,0,0,0,.3-1.95c-.07-.13-.13-.07-.28.18a3.85,3.85,0,0,0-.26.56C316.31,303.25,316.21,303.56,316,303.9Z"/><path class="cls-2" d="M253.83,319.58l-1.7-.57-4.94-1.63C249.45,318.15,251.58,318.89,253.83,319.58Z"/><path class="cls-2" d="M117.58,282c9.31-6.73,20.86-8.89,31.62-7.83a50.92,50.92,0,0,0-8.39-.21,48.72,48.72,0,0,0-8.34,1.19,41.1,41.1,0,0,0-15.15,7,29.1,29.1,0,0,0-3.16,2.81,28.36,28.36,0,0,0-2.75,3.24c-.42.57-.76,1.21-1.14,1.81l-.54.92c-.16.31-.29.65-.44,1-.28.66-.58,1.3-.83,2l-.57,2.05a21.06,21.06,0,0,0,2.26,15.52,22.77,22.77,0,0,1-2.37-8.66,20.67,20.67,0,0,1,1.58-10.78A25.05,25.05,0,0,1,117.58,282Z"/><path class="cls-2" d="M327,304.53a18.6,18.6,0,0,1-5.26,9,29.15,29.15,0,0,1-8.84,5.6,69.49,69.49,0,0,1-20.28,4.54c-3.44.31-6.88.47-10.31.51-1.72,0-3.42,0-5.15,0l-2.6-.14-2.58-.28a84.73,84.73,0,0,1-10.09-1.92c-3.31-.79-6.54-1.77-9.76-2.76-12.89-4.48-25.18-9.95-37.31-15.22s-24.07-10.52-36-14.89a179.29,179.29,0,0,0-17.95-5.63,69.45,69.45,0,0,0-17.75-2.41,38.86,38.86,0,0,0-16.29,3.94,28.51,28.51,0,0,0-6.55,4.48,18.49,18.49,0,0,0-4.2,5.92,12.34,12.34,0,0,0-.54,1.43c-.12.51-.24,1-.38,1.51a15,15,0,0,0-.19,3.15,13.59,13.59,0,0,0,1.8,6.31c2.31,4,6.83,7.52,12.13,9.52a27.64,27.64,0,0,0,8.31,1.79l1,0,.53,0,.59,0,2.36-.13,1.19-.07,1.19-.15,2.4-.3a86.64,86.64,0,0,0,19.16-5.34A155.28,155.28,0,0,0,184,304.05c5.92-3.3,11.6-6.86,17-10.51s10.43-7.34,15.14-10.92c2.33-1.83,4.63-3.61,6.73-5.34s4-3.4,5.79-5.09c-1.65,1.3-3.36,2.46-5,3.68s-3.3,2.37-4.95,3.53c1.17-.91,2.37-1.81,3.45-2.71l3.16-2.64c2.1-1.7,4-3.53,5.76-5.25,12-10.41,22-22.75,27.83-36.67a71.75,71.75,0,0,0,5.46-21.64l.24-2.79c.05-.93.05-1.86.08-2.79a53.21,53.21,0,0,0-.1-5.52,56.71,56.71,0,0,0-1.66-10.61c-1.78-6.77-5-12.84-9.43-16.65l-.42-.38-.52-.41-1-.84c-.72-.52-1.41-1.08-2.15-1.56a53,53,0,0,0-4.54-2.83,63.27,63.27,0,0,0-10-4.34,82.69,82.69,0,0,0-11-2.8c-1-.17-1.91-.35-2.89-.49l-1.45-.22-2-.37a39.82,39.82,0,0,1-8.33-2.41,32.57,32.57,0,0,1-8.08-4.84c-.63-.52-1.25-1.06-1.85-1.6s-1.13-1.19-1.68-1.79a28.08,28.08,0,0,1-2.94-3.88,18.81,18.81,0,0,1-1.2-2.07c-.36-.7-.73-1.41-1.07-2.11l-.84-2.15L191,136l-.32-1.08-.6-2.15c-.17-.71-.29-1.42-.43-2.13-.31-1.43-.41-2.81-.58-4.21a58.77,58.77,0,0,1,1.15-17.57,44.62,44.62,0,0,1,7.35-16.68,38.79,38.79,0,0,1,7.55-7.85,30.42,30.42,0,0,1,10.74-5.45c1.06-.24,2.13-.46,3.2-.65s2.2-.2,3.3-.25a32.59,32.59,0,0,1,3.53.21,27.88,27.88,0,0,1,3.41.71,28.45,28.45,0,0,1,10.92,6c.08,0,0-.15-.33-.46a36.49,36.49,0,0,1,7.38,8.48,46.81,46.81,0,0,1,4.66,9.27,48.73,48.73,0,0,1,3.12,20.39,45.32,45.32,0,0,1-6.44,20.18,38.23,38.23,0,0,1-7.36,8.74,25.54,25.54,0,0,1-2.35,1.85,20.88,20.88,0,0,1-2.53,1.67c-.89.51-1.77,1-2.68,1.48s-1.9.8-2.85,1.18a21.72,21.72,0,0,1-2.94.91,22.29,22.29,0,0,1-3,.67q-1.5.21-3,.39c-.58.07-.79.08-1.12.11l-.92.07c-2.47.21-4.89.46-7.24.82s-4.66.75-6.86,1.29a50.71,50.71,0,0,0-6.32,1.89,33.94,33.94,0,0,0-5.53,2.57,25,25,0,0,0-4.54,3.25,32.27,32.27,0,0,0-4,4.38,43.78,43.78,0,0,0-3.5,5.3,47.39,47.39,0,0,0-6.21,23.12l.12,2.95c.13,1,.2,1.93.35,3,.4,2.13.71,4.31,1.3,6.34a47.37,47.37,0,0,0,4.38,11.49c.72,1.28,1.29,2.18,1.66,3a16.47,16.47,0,0,1,1,1.85l.38.8c.15.23.29.47.45.73s.35.53.56.83a5.36,5.36,0,0,0,.76.95,20.36,20.36,0,0,0,7.35,5.49,3.74,3.74,0,0,0,.89.3l.86.27c.28,0,.55.07.82.12l.41.08a2.54,2.54,0,0,0,.39,0,6.91,6.91,0,0,1,.78,0c.28,0,.59-.09.88-.12a10.72,10.72,0,0,0,1.74-.35,10,10,0,0,0,3.21-1.73l.41-.3.39-.38c.25-.26.54-.48.8-.77a22,22,0,0,0,1.55-2,24.81,24.81,0,0,0,1.48-2.37c.24-.42.45-.91.69-1.36s.46-.93.66-1.45a47.24,47.24,0,0,0,2.27-6.67l.57.14c.69-3.05,1.15-5.92,1.54-8.28a48.5,48.5,0,0,1-.38,9.49,58,58,0,0,1-1.78,8.41,17.88,17.88,0,0,0-.48,2.07c0,.36.15.38.57-.07.8-.92,2.78-3.74,4.88-10.49h0c-.14.78-.34,1.49-.49,2.18s-.31,1.36-.49,2l-.15.44,0,0a53.63,53.63,0,0,1-2.67,7.64l-.32.77-.36.71q-.34.7-.66,1.38c-.51.84-.93,1.73-1.46,2.51a34,34,0,0,0,6.15-10.84c0,.85,0,1.45.44,1.13l-.27,1.13-1,2.28a9.77,9.77,0,0,1-.48.92,8.14,8.14,0,0,0-.27,1.46,25.78,25.78,0,0,1-5.43,7.57,20.45,20.45,0,0,1-8,4.61l-2,.53c-.63.1-1.23.17-1.79.25a19.59,19.59,0,0,1-2.8.19c-.37,0-.68,0-.92.06a3,3,0,0,0-.51,0c-.21.05-.13.17.31.36a16.64,16.64,0,0,0,3.22.39c.71,0,1.49-.09,2.35-.16s1.73-.36,2.68-.56a22.14,22.14,0,0,0,11.2-7.58c.43-.43.91-.94,1.39-1.47l-1.31,1.75-1.08,1.24c-.58.73-1,1.15-1.27,1.45-.49.6-.25.63.12.54s.89-.31.92-.15-.1.25-.41.59c-.15.16-.36.37-.63.62a5.9,5.9,0,0,1-1,.85,23.24,23.24,0,0,1-16.36,4.14,30,30,0,0,1-15-7.16,47.06,47.06,0,0,1-10.12-12.76A62.94,62.94,0,0,1,163,219c-.31-1.24-.68-2.47-.93-3.71l-.69-3.72c-.27-1.23-.37-2.52-.53-3.78s-.21-2.54-.28-3.81A59,59,0,0,1,162,188.91,60.8,60.8,0,0,1,175.52,162a44.21,44.21,0,0,1,5.73-5.44,47,47,0,0,1,6.73-4.32,63.54,63.54,0,0,1,15.07-5.37c1.85-.43,3.69-.78,5.53-1.08,2.55-.43,5.09-.75,7.6-1,1.26-.13,2.51-.23,3.76-.33a15.67,15.67,0,0,0,1.64-.2c.51-.08,1-.11,1.53-.22a18.82,18.82,0,0,0,10.29-6.19,27.74,27.74,0,0,0,5.8-11.24,30.84,30.84,0,0,0,1-6.4l.05-.81,0-.81c0-.53,0-1.06-.05-1.61-.12-1.1-.19-2.2-.41-3.3a32.21,32.21,0,0,1,.83,3.48,36.43,36.43,0,0,0-2.34-10.58,29.78,29.78,0,0,0-5.43-9.18l-.88-1c-.3-.32-.64-.57-.95-.86a17.77,17.77,0,0,0-2-1.53c-.35-.23-.71-.39-1.06-.59l-.53-.3c-.18-.08-.37-.14-.55-.21-.36-.13-.72-.29-1.09-.41l-1.11-.25a5.35,5.35,0,0,0-1.12-.13,6.08,6.08,0,0,0-1.13,0l-1.17.09c-.39,0-.77.17-1.16.24l-.58.13-.56.2c-.38.15-.76.25-1.13.42a17.4,17.4,0,0,0-2.16,1.17A20.19,20.19,0,0,0,211,98.56a27.35,27.35,0,0,0-3.59,5.35c-.54.94-.92,2-1.39,3s-.8,2-1.07,3.11a38.15,38.15,0,0,0-1.33,6.44,36.61,36.61,0,0,0,.69,13,23.21,23.21,0,0,0,2.34,5.59c.27.41.57.79.85,1.19l.42.6.5.52c.33.35.64.71,1,1l1.13.91c.18.15.36.32.55.46l.64.38,1.24.77c.45.22.92.4,1.38.61a9.59,9.59,0,0,0,1.4.58l1.49.45a10.38,10.38,0,0,0,1.53.39l1.58.28c.54.1,1,.2,1.69.29a102.81,102.81,0,0,1,15.32,3.19c2.55.74,5.07,1.64,7.57,2.63a78.5,78.5,0,0,1,7.37,3.49,69.12,69.12,0,0,1,7,4.41l1.67,1.23,1.62,1.3c.54.41,1.1.95,1.65,1.44a21,21,0,0,1,1.59,1.54,39.7,39.7,0,0,1,5.63,7.24,48.59,48.59,0,0,1,4,8,58.64,58.64,0,0,1,2.63,8.36c.37,1.41.6,2.83.89,4.25s.46,2.84.59,4.27a81.39,81.39,0,0,1,.07,17,86.06,86.06,0,0,1-3.17,16.67c-.2.68-.38,1.37-.59,2l-.7,2c-.49,1.33-.91,2.69-1.45,4-1.11,2.6-2.17,5.24-3.5,7.74s-2.69,5-4.12,7.44c-.7,1.23-1.54,2.37-2.31,3.56s-1.53,2.39-2.41,3.5a137.21,137.21,0,0,1-23.47,24.58,139.85,139.85,0,0,0,19.72-20,107.09,107.09,0,0,0,14.85-24.58,88.4,88.4,0,0,0,6.93-25,95.26,95.26,0,0,1-6.93,25,103.22,103.22,0,0,1-12.95,21.47A137.76,137.76,0,0,1,242.88,278c-1.45,1.33-3,2.56-4.43,3.82-.74.63-1.46,1.27-2.2,1.88s-1.51,1.17-2.25,1.75l-4.43,3.46-4.3,3.22L217,298.31c-2.72,2-5.27,3.95-7.81,5.78-2.38,1.3-2.47,1.14-4.7,2.52C188.8,316.24,172,324.5,155.84,329c.1.33-8.27,1.75-5.42,1.66-.53.09-1,.2-1.58.28l-1.63.19-3.29.39-3.4.16-1.72.08-2-.07a39.57,39.57,0,0,1-15-3.75,36.75,36.75,0,0,1-12.7-9.4,26.84,26.84,0,0,1-2.48-3.37c-.37-.6-.77-1.18-1.1-1.81l-.93-1.95-.44-1c-.13-.34-.23-.69-.35-1-.21-.69-.43-1.38-.64-2.07a38.43,38.43,0,0,1-.74-4.22,27.57,27.57,0,0,1,2.68-14.28A33.34,33.34,0,0,1,113.75,278a43.58,43.58,0,0,1,11.49-6.4,50.34,50.34,0,0,1,12.28-3,58.3,58.3,0,0,1,12.45-.09,95.08,95.08,0,0,1,11.44,1.92,182.86,182.86,0,0,1,21.1,6.3c6.8,2.42,13.43,5.05,20,7.74,13.14,5.39,26.08,11.11,39.13,16.22,6.52,2.53,13.08,5,19.54,6.83,3.25,1,6.43,1.72,9.53,2.33l2.3.39,2.2.26c.75.12,1.4.09,2.1.14.36,0,.65,0,1.06.06l1.3,0a107.07,107.07,0,0,0,20.66-1.42,40.25,40.25,0,0,0,8.64-2.54,13.39,13.39,0,0,0,4.82-3.28,9.87,9.87,0,0,1-2.9,2.58,25.76,25.76,0,0,1-5.17,2.39,61.55,61.55,0,0,1-13.89,2.77c-2.52.24-5.11.39-7.73.47-1.31,0-2.63.05-4,.05h-2l-1.63-.08-.82,0-.87-.1-1.74-.19c-1.21-.2-2.4-.36-3.64-.61-2.47-.5-5-1.09-7.58-1.83-9.9-3.11-19.78-7.26-29.2-11.2s-18.44-7.77-26.81-10.87q-5.81-2.23-11.68-4.42c11.78,4.67,23.18,9.65,34.45,14.32s22.42,9.13,33.24,12.17c2.92.93,5.82,1.7,8.66,2.32l2.1.42c.7.13,1.37.2,2.05.31l1,.15,1,.07,1,.08.48.05.59,0a110.08,110.08,0,0,0,18.28-.59l-.7.13a106.11,106.11,0,0,1-14.27,1c-1.22,0-2.46,0-3.69,0s-2.07-.06-3.16-.17a58.81,58.81,0,0,1-6.74-1c-8.69-2.09-17.55-5.49-26-8.83s-16.58-6.81-24.23-9.82l-5.63-2.17L201,286.38c14.34,5.89,28.28,12.09,42.08,17.38,8.54,3.24,17.14,6.24,25.32,7.93a60,60,0,0,0,7.44,1.35c2.12.23,5.2.32,7.89.34l-1.73.14c-.61,0-1.35.07-2.18.13l-2.53.2c-1.57.18-3.36.23-4.82.37-3,.12-4.69.53-1.27,1.48a52.67,52.67,0,0,0,6.67.78c2.47.09,5,.11,7.54.07a94.37,94.37,0,0,0,15-1.35,41.29,41.29,0,0,0,12.94-4.28,16.83,16.83,0,0,0,4.3-3.36,11.61,11.61,0,0,0,2.29-3.88,16,16,0,0,0,.12-8.8,15.52,15.52,0,0,0-3.37-6.24,20.74,20.74,0,0,0-3.71-3.3l-1.55-1c-.09-.1,0-.11.29,0s.65.33,1.19.62a10,10,0,0,1,.9.53l1,.73.56.4.53.49c.35.35.78.68,1.14,1.08a16,16,0,0,1,3.71,6.38,17,17,0,0,1,.33,8.6,12.57,12.57,0,0,1-4.4,6.85,23.31,23.31,0,0,1-3.6,2.41,33.62,33.62,0,0,1-3.77,1.72,51.24,51.24,0,0,1-6,1.87,10.9,10.9,0,0,0-1.85.47,45.69,45.69,0,0,0,9.95-2.6,48.49,48.49,0,0,1-8.88,3.15,75.26,75.26,0,0,1-11.83,1.53c-4,.25-7.78.28-10.3.42-1.08,0-2.26.1-3.29.07s-2.11,0-3.2-.13-2.18-.18-3.3-.37-2.23-.32-3.37-.57a118.25,118.25,0,0,1-13.82-3.75c-9.33-3.12-18.81-7-28.39-10.79C213,298.79,198.65,293,184,288c-.13.34-7.31-2.6-5-1.31-3.39-1.3-7-2.53-10.5-3.67s-7.07-2.11-10.4-2.78c-1.65-.38-3.27-.61-4.79-.86s-3-.33-4.29-.44-2.54-.08-3.61,0-2,.19-2.74.31l-1,.08c-.5,0-1.1.07-1.76.13s-1.39.22-2.13.35a19.19,19.19,0,0,0-2.15.31l-2.09.4a40.67,40.67,0,0,0-4,1.18,31.45,31.45,0,0,0-7.06,3.43l-1.56,1.07-1.42,1.18a11.18,11.18,0,0,0-1.31,1.26,13.51,13.51,0,0,0-1.21,1.31,18.66,18.66,0,0,0-3.33,6,17.35,17.35,0,0,0-.63,6.51,17.66,17.66,0,0,0,2.11,6.13,22.93,22.93,0,0,0,4.43,5.11,32.66,32.66,0,0,0,15.93,6.82c.42,0,.85.12,1.28.15l1.27.05a24.76,24.76,0,0,0,2.7-.06c.92-.05,1.85,0,2.78-.14l2.79-.3-1.94.2a20.14,20.14,0,0,1-2.1.15l-2.22.06-1.13,0c-.38,0-.72,0-1.07-.05a35.55,35.55,0,0,1-7.91-1.42l-2.19-.75c-.71-.28-1.4-.6-2.1-.9a27.4,27.4,0,0,1-5.47-3.57c-.21-.17-.43-.33-.63-.51l-.56-.56c-.37-.38-.78-.73-1.12-1.13a19.63,19.63,0,0,1-3.32-5.17l-.47-1.43a6,6,0,0,1-.22-.72l-.13-.74a15.24,15.24,0,0,1,.06-6l.39-1.46a9.41,9.41,0,0,1,.54-1.42,18.66,18.66,0,0,1,1.44-2.72,22.54,22.54,0,0,1,4.25-4.66,30.88,30.88,0,0,1,5.42-3.59,39.78,39.78,0,0,1,6.13-2.45,34.75,34.75,0,0,1,5.79-1.6c.65-.07,1.29-.16,1.94-.21l2-.07c.31-.1.65-.19,1-.28a58.75,58.75,0,0,1,13.33,1.18,133.72,133.72,0,0,1,13.35,3.38c8.73,2.65,17,5.81,24.08,8.49,13.31,5.25,26.74,11.42,40.4,17.19,6.83,2.89,13.72,5.69,20.73,8.06q5.24,1.82,10.58,3.18a67.49,67.49,0,0,0,10.77,1.89,67.67,67.67,0,0,1-10.7-1.57c-3.52-.77-7-1.71-10.41-2.76-6.85-2.1-13.53-4.54-20.1-7.08A253.33,253.33,0,0,0,259,319.64a98.77,98.77,0,0,0,12.14,2.67,71.85,71.85,0,0,0,12.15.55c2.49,0,4.93,0,7.39-.16a84.55,84.55,0,0,0,15.28-2.05,86.35,86.35,0,0,1-14.16,1.78,82.38,82.38,0,0,0,14-2.32,38.08,38.08,0,0,0,12.53-5.57,22.68,22.68,0,0,0,3.44-3,18.13,18.13,0,0,0,2.58-3.71,18.78,18.78,0,0,0,1.93-8.76,22.64,22.64,0,0,0-2-8.84,22.29,22.29,0,0,0-5.37-7.27,29.4,29.4,0,0,0-7.8-4.87c-.73-.28-1.42-.64-2.17-.86l-2.22-.71a42,42,0,0,0-4.59-.95,43.14,43.14,0,0,0-4.68-.48c-.79,0-1.58,0-2.36,0h-1.18c-.4,0-.78.06-1.18.08l-2.34.19-2.34.36c-1.56.19-3.1.63-4.65,1a89.93,89.93,0,0,0-17.91,7,165.48,165.48,0,0,0-16.76,9.89,294,294,0,0,0-30.74,24c.59-.86,1.32-1.81,2.13-2.85a286.11,286.11,0,0,1,29.18-22.79c9.92-6.67,19.89-12.26,29.52-15.87A97.93,97.93,0,0,0,261.08,284c-5.29,3-10.35,6.22-16.11,10.2-.05-.1-.26-.16.67-.88-7.3,5.22-15.43,11.83-23.11,18.49,2.14-2.51,4.63-5.23,7.17-7.91A175.18,175.18,0,0,1,246,291.11c3.48-2.36,7-4.66,10.58-6.74,1.78-1.08,3.63-2,5.44-3.05s3.67-1.92,5.57-2.75a87.19,87.19,0,0,1,11.56-4.49,55.91,55.91,0,0,1,12.2-2.44,45.9,45.9,0,0,1,12.49.59,38.81,38.81,0,0,1,11.89,4.24,28.22,28.22,0,0,1,9.57,8.6,25.13,25.13,0,0,1,4.24,12.4l.08,1.48-.05,1.49a28,28,0,0,1-.36,3,19.45,19.45,0,0,1-2,5.71,22.28,22.28,0,0,1-8.2,8.53,32.09,32.09,0,0,1-5.16,2.62,44.63,44.63,0,0,1-5.4,1.84,71.53,71.53,0,0,1-11,2.08c-3.69.43-7.39.63-11.08.69-1.84,0-3.68,0-5.52,0-.91,0-1.83-.05-2.75-.08s-1.87-.12-2.8-.19a97.73,97.73,0,0,1-21.47-5,100.14,100.14,0,0,0,20.84,4.56c3.56.25,6.94.2,10.37.12s6.79-.33,10.14-.72a61.63,61.63,0,0,0,19.24-5,27.21,27.21,0,0,0,8-5.64A18.25,18.25,0,0,0,327,304.53ZM184.94,241.34a34.11,34.11,0,0,1-5.24-4.69l.62.89c.37.42.74.82,1.11,1.22s.82.68,1.21,1l1.16.91C184.19,240.93,184.58,241.14,184.94,241.34Zm-15.37-49.75a46.27,46.27,0,0,0-1.18,12.79c0,.56,0,1.14.09,1.71s.13,1.14.2,1.72.11,1.14.23,1.74.22,1.2.34,1.8.23,1.21.34,1.82.24,1.21.41,1.81c.32,1.2.64,2.41,1,3.62a53.27,53.27,0,0,0,6.33,13.64,32.36,32.36,0,0,0,10.17,10.14.3.3,0,0,0,.22,0,32.88,32.88,0,0,1-8.94-8.69A50.73,50.73,0,0,1,172.28,221a69.54,69.54,0,0,1-2.14-7.23l-.75-3.76a18.4,18.4,0,0,1-.3-1.86l-.24-1.83A48.2,48.2,0,0,1,169.57,191.59Zm45.74-33.79-.39,0s0,.06,0,.09Zm37.17,97.86,2.19-3.12,2.08-3.31c.35-.56.71-1.12,1.07-1.68l1-1.76c.65-1.18,1.34-2.36,2-3.57a93.94,93.94,0,0,0,6.36-15.77,76.83,76.83,0,0,0,3.12-17.52l.09-1.13,0-1.14,0-2.27c.06-1.52,0-3-.09-4.54a62.11,62.11,0,0,0-1.16-8.94,41.44,41.44,0,0,0-3.47-10.34c-.4-.85-.88-1.67-1.33-2.54s-1-1.71-1.56-2.52a38.33,38.33,0,0,0-3.84-5,30.2,30.2,0,0,0-2.86-2.64l-1.56-1.2L253,165.6a58.67,58.67,0,0,0-6-3.55,70.14,70.14,0,0,0-12.39-4.82,65.55,65.55,0,0,1,6.53,2.82,59.69,59.69,0,0,0-10.75-3.55,84.53,84.53,0,0,0-10-1.69l-.62-.08-.79-.13-1.57-.26a23.36,23.36,0,0,1-3.19-.69c-1.07-.32-2.16-.62-3.25-1s-2.18-1-3.29-1.48-2.16-1.31-3.25-2-2.06-1.68-3.1-2.58a39.25,39.25,0,0,1-2.75-3.21,25.64,25.64,0,0,1-2.28-3.73A5.68,5.68,0,0,1,195,137.9a20.74,20.74,0,0,1-1.74-4.23,40,40,0,0,1-1.6-11.62,52.11,52.11,0,0,1,1.18-10.92,48.19,48.19,0,0,1,3.39-10.06,43.92,43.92,0,0,1,5.14-8.59,32.44,32.44,0,0,1,9.5-8.28,24.27,24.27,0,0,1,13.4-3.14c.61,0,1.23.08,1.84.16s1.17.25,1.76.39a18.67,18.67,0,0,1,3.32,1.07,25.57,25.57,0,0,1,5.55,3.15,35.94,35.94,0,0,1,7.53,7.74,48,48,0,0,1,7.16,14.15,49.5,49.5,0,0,1,1.18,5.69l.33,2.92.12,3.07a43.32,43.32,0,0,1-1.7,11.87q.24-.5.42-.9a41.7,41.7,0,0,0,1.46-9.76c.05-.83,0-1.68,0-2.53s-.05-1.72-.16-2.51l-.3-2.41c-.13-.79-.3-1.58-.45-2.37a48,48,0,0,0-5.2-13.85,36,36,0,0,0-11-12.33,24,24,0,0,0-8.91-3.8c-.41-.08-.83-.18-1.25-.24l-1.29-.11-1.29-.08a7.54,7.54,0,0,0-1.26,0c-.81,0-1.61.11-2.41.19s-1.56.3-2.33.46a26.06,26.06,0,0,0-8.16,3.5A32.1,32.1,0,0,0,205.94,87c-1,.87-2,1.74-2.81,2.66A42.47,42.47,0,0,0,194,104.89a51.39,51.39,0,0,0-2.7,16.58c0,1.38.08,2.8.17,4.2.06.71.16,1.42.25,2.13l.14,1.06.21,1.08a35.44,35.44,0,0,0,2.74,8.53,29.63,29.63,0,0,0,2.37,4.06c.46.64.89,1.3,1.4,1.91l1.61,1.77c.28.28.53.59.83.85l.91.77,1.83,1.51c.65.43,1.31.84,2,1.25a17.38,17.38,0,0,0,2,1.14l2,.93a14.68,14.68,0,0,0,2.07.8l2.07.63a14.93,14.93,0,0,0,2.07.52l2,.37,1,.18c.34.06.7.13.93.15,1.06.15,2.13.27,3.17.45a89.36,89.36,0,0,1,12.28,2.74,64.52,64.52,0,0,1,11.31,4.63,58.77,58.77,0,0,1,5.18,3.12c.82.58,1.66,1.15,2.45,1.77l1.2.93,1,.89c4.7,4.09,8.26,10.1,10.33,16.73a58.18,58.18,0,0,1,2.58,16.36,78.2,78.2,0,0,1-1.6,17.11,83.73,83.73,0,0,1-4.61,15.23l-.67,1.71c-.22.56-.49,1.09-.73,1.62l-1.4,3.11c-.94,2-1.92,3.79-2.71,5.49-.59,1.09-1.62,2.65-2.61,4.24-.48.8-1,1.57-1.5,2.28A22.64,22.64,0,0,0,252.48,255.66ZM238,282.11l4-3.51c1.31-1.21,2.58-2.48,3.88-3.73.65-.63,1.31-1.24,1.94-1.89l1.86-2,1.87-2c.63-.66,1.24-1.33,1.82-2.05l3.54-4.22,3.33-4.43.83-1.11.76-1.16,1.54-2.32c.5-.78,1-1.52,1.5-2.33l1.4-2.4a97.69,97.69,0,0,0,8.82-20.06,91.55,91.55,0,0,0,3.82-20.6,73.06,73.06,0,0,0-2-22.11,53.2,53.2,0,0,0-5-12.78,40,40,0,0,0-8.53-10.77,55.08,55.08,0,0,0-17.75-10.23c-4.38-1.42-6.24-1.46-4,0a46.18,46.18,0,0,1,13.81,5.76,48,48,0,0,1,8.7,6.65,40.09,40.09,0,0,1,7.41,10.39,54.9,54.9,0,0,1,4.56,13.05,72.71,72.71,0,0,1,1.57,14.38,85.92,85.92,0,0,1-4.82,28.83,97.27,97.27,0,0,1-12.5,24A147.5,147.5,0,0,1,246.49,272c-2.11,2-3.93,3.87-5.44,5.38s-2.77,2.62-3.58,3.5C235.86,282.61,235.87,283.15,238,282.11Zm-69.58-8.68a120.29,120.29,0,0,0-17.24-3.5c-1.51-.21-3.15-.27-4.74-.41-.81,0-1.67,0-2.51,0a24,24,0,0,0-2.54,0l-2.58.15c-.86.09-1.73.21-2.6.32l-1.32.17-1.31.25c-.88.19-1.78.32-2.67.56a52.25,52.25,0,0,1,9.86-1.52c1.66-.15,3.33-.09,5-.08s3.23.2,4.82.36A110.69,110.69,0,0,1,168.43,273.43Zm-26.87,51.45c-1.06.07-2.12.19-3.2.21a30.06,30.06,0,0,1-3.29-.12c-.55-.06-1.1-.1-1.65-.18l-1.63-.29c-1.1-.16-2.15-.52-3.23-.78a33.64,33.64,0,0,1-11.86-6.32,23,23,0,0,1-7.65-11.71,20.68,20.68,0,0,1,1.77-14.25,28.12,28.12,0,0,1,9.87-10.21,41.16,41.16,0,0,1,12.83-5.16A48.06,48.06,0,0,1,147.13,275a82.26,82.26,0,0,1,13,2,147.34,147.34,0,0,1,19.2,5.88c6.31,2.34,12.53,4.94,18.63,7.56,12.2,5.24,23.95,10.52,34.82,14.42l.23-.54-2.42-.83c-8.21-3.68-14.72-7-21.61-10.18l1.23.49-2.11-.89c-4.61-2.14-9.43-4.29-15.14-6.5-2.63-1-5.3-2-8-3a205.08,205.08,0,0,0-23.67-7.64,89.77,89.77,0,0,0-12.63-2.17c-1.09-.07-2.15-.21-3.27-.22s-2.22,0-3.32,0-2.21.13-3.31.23l-3.27.45A44.27,44.27,0,0,0,123,278.17a32.36,32.36,0,0,0-10.46,8.15,22.79,22.79,0,0,0-5.27,12.39,20.92,20.92,0,0,0,2.85,12.67,24.57,24.57,0,0,0,2.22,3.14c.41.47.79,1,1.22,1.42l1.33,1.27.66.62.71.56,1.41,1.1c1,.64,2,1.31,3,1.86a36.42,36.42,0,0,0,12.79,4.24c1.12.08,2.22.26,3.35.24h1.68c.56,0,1.09-.08,1.63-.11l3.24-.27,3.23-.49,1.62-.25,1.61-.35,3.24-.7,3.22-.9,1.63-.45,1.62-.54c-.62.18-1.28.4-2,.56l-2.19.51-2.32.52-2.4.41-2.4.41-2.36.27-2.25.27C142.91,324.8,142.22,324.82,141.56,324.88Z"/><path class="cls-2" d="M286.59,322.58a97.64,97.64,0,0,0,16.52-1.95c5.39-1.18,10.76-3,15.2-6.09a17.93,17.93,0,0,0,7-9.66A20.93,20.93,0,0,0,325,293l-.57-1.68-.78-1.61c-.13-.26-.24-.54-.4-.8l-.48-.75c-.34-.49-.61-1-1-1.49a26.16,26.16,0,0,0-5.21-5.08,33.58,33.58,0,0,0-14.06-5.52l-1.94-.29c-.64-.07-1.3-.1-1.95-.15a37.14,37.14,0,0,0-3.95-.11,16.31,16.31,0,0,0-2,.09l-2,.15c-1.31.15-2.63.4-3.95.59a76,76,0,0,0-15.57,5.09,158.94,158.94,0,0,0-28.93,17.23,286.65,286.65,0,0,0-25.81,21.42c-.57,1.31-.28,1.84,1.29,1.22a328.66,328.66,0,0,1,27.76-22.23c9.62-6.78,19.71-13,30.34-17.15a56.9,56.9,0,0,1,16.12-4l2-.15H297l1,.08,2,.16a37.25,37.25,0,0,1,7.76,1.78,27.22,27.22,0,0,1,6.86,3.5,22.51,22.51,0,0,1,5.2,5.2,18.24,18.24,0,0,1,2.73,6.57c.09.6.25,1.18.29,1.78l.09,1.83c0,.6,0,1.2-.05,1.8s-.11,1.18-.26,1.73c0,.28-.08.57-.11.86a13,13,0,0,1-2.51,5.66,16.94,16.94,0,0,1-2.51,2.59,24.51,24.51,0,0,1-3.33,2.25c-4.94,2.75-11.43,4.32-18.16,5.13-3.38.4-6.85.62-10.34.72-1.74.05-3.49.05-5.24.05l-2.62-.05-2.46-.13a102.66,102.66,0,0,1-19.29-4c-12.22-3.45-24.19-8.28-36.11-13.12s-23.82-9.9-36-14.2c17.33,6.89,33.77,14.65,50.46,21.59a269.22,269.22,0,0,0,25.39,9.36,93.41,93.41,0,0,0,13.18,3A94.47,94.47,0,0,0,286.59,322.58Z"/><path class="cls-2" d="M194.81,294.61a204.91,204.91,0,0,1-25.72,13.78,100.56,100.56,0,0,1-18.16,6.2c-1.49.28-3,.61-4.44.86s-2.94.43-4.39.54l-2.17.13-1.08.07c-.34,0-.61,0-.91,0h-.89c-.3,0-.61-.06-.91-.09a14.76,14.76,0,0,1-1.84-.25,24.64,24.64,0,0,1-13-6.56A13.27,13.27,0,0,1,118,304a11.05,11.05,0,0,1-.15-5.88,12.41,12.41,0,0,0-.42,2.17,10.46,10.46,0,0,0,0,1.12,4,4,0,0,0,.06,1.1c.07.36.12.72.16,1.08s.23.7.33,1.06c.05.17.09.36.15.53l.26.52c.17.34.28.7.49,1a18.07,18.07,0,0,0,3.13,3.89c.32.3.69.58,1,.87l.51.44.57.39,1.13.79,1.23.7a9.36,9.36,0,0,0,1.26.65l1.29.61c.9.32,1.77.73,2.7,1a24.26,24.26,0,0,0,5.5,1.05l1.35.07c.48,0,1,0,1.57-.06,1.07-.06,2.13,0,3.2-.16l3.22-.35c1.07-.14,2.15-.37,3.23-.55l1.61-.3,1.58-.41c1.06-.28,2.1-.52,3.13-.83,2.06-.69,4.09-1.26,6.06-2.07l2.93-1.14L168,310c1.91-.81,3.76-1.76,5.6-2.68A213.16,213.16,0,0,0,194.81,294.61Z"/><path class="cls-2" d="M128.12,287.16a24.42,24.42,0,0,0-6.76,4.87,13.67,13.67,0,0,0-3.5,6.07,13.88,13.88,0,0,1,3.72-6,24.43,24.43,0,0,1,6.8-4.57,36.71,36.71,0,0,1,17.32-3.16,70.68,70.68,0,0,1,9.43,1.31c3.19.71,6.4,1.49,9.61,2.48,6.42,1.91,12.83,4.23,19.2,6.74,10.53,4,21,8.55,31.55,13s21.2,8.93,32.24,12.76a151.55,151.55,0,0,0,17,4.91,77,77,0,0,0,9,1.46c.77.09,1.56.11,2.34.16s1.57.09,2.29.09c1.46,0,2.93,0,4.4,0a116.67,116.67,0,0,0,17.72-1.46,54.63,54.63,0,0,0,17.44-5.65,29.14,29.14,0,0,0,7-5.35,22.09,22.09,0,0,0,4.69-7.73,21.54,21.54,0,0,1-5,7.84,29.06,29.06,0,0,1-7.29,5.22,54.63,54.63,0,0,1-16.17,4.85,111,111,0,0,1-16.31,1.19c-2.72,0-5.36,0-8.12-.19-1.41-.1-2.81-.2-4.17-.42-.69-.1-1.38-.18-2.06-.29l-2-.39a121.54,121.54,0,0,1-15.58-4.29c-5-1.7-10-3.59-14.84-5.55-9.72-3.93-19.18-8.14-28.54-12.23s-18.63-8.09-27.88-11.61-18.52-6.6-27.69-8.26a50.89,50.89,0,0,0-13.37-.84c-1.08,0-2.14.28-3.21.4s-2.11.45-3.15.66-2,.57-3,.93-2,.7-2.9,1.18a24.17,24.17,0,0,0-9.29,7,15,15,0,0,0-2.45,4.53,13.29,13.29,0,0,0-.47,2.39c0,.4-.1.8-.11,1.2s0,.8.07,1.2a6,6,0,0,0,.21,1.43l.13.73c.05.24.17.47.24.7l-.17-.54a4.68,4.68,0,0,1-.09-.54c0-.37-.11-.74-.18-1.1s0-.75,0-1.12a6,6,0,0,1,0-1.12,11.79,11.79,0,0,1,.41-2.21l.31-1.08.47-1.05a18.08,18.08,0,0,1,6.65-7.24c5.94-3.94,13.77-5.78,21.25-5.44A70.57,70.57,0,0,1,157,284.83c3.95.88,7.91,2,11.85,3.3,7.88,2.53,15.69,5.62,23.47,8.82-11-4.41-22-8.57-33.1-11.26A66.88,66.88,0,0,0,143,283.62,36.78,36.78,0,0,0,128.12,287.16Z"/><path class="cls-2" d="M275.84,322.59c2.47.24,5,.23,7.41.27,2.88-.05,5.7-.18,8.51-.43-1.73.08-3.46.14-5.17.15C283,322.71,279.39,322.79,275.84,322.59Z"/><path class="cls-2" d="M209,293.29l-.88-.4c-7.52-3.2-15.23-6.44-23.16-9.46-5.51-2-11.21-3.89-17.14-5.55a107.94,107.94,0,0,0-18.64-3.75,100.34,100.34,0,0,1,17,3.47c5.42,1.53,10.63,3.3,15.62,5.12C191.78,286.36,200.94,290.13,209,293.29Z"/><path class="cls-2" d="M138,268.16l-2.84.34c-1.07.14-2.23.41-3.4.62a51.25,51.25,0,0,0-6.16,1.73,51.13,51.13,0,0,0-5.32,2.59c1.39-.64,2.79-1.28,4.21-1.8a44.5,44.5,0,0,1,4.29-1.37l2.27-.71,2.3-.55C134.91,268.61,136.47,268.42,138,268.16Z"/><path class="cls-2" d="M209.19,304.09A243.09,243.09,0,0,1,179,321.35a128.14,128.14,0,0,1-16.29,6.47c-2.79.94-5.69,1.65-8.58,2.37l-4.42.85c-1.48.27-3,.41-4.51.61s-3,.24-4.56.34l-1.15.06a11.49,11.49,0,0,1-1.2,0l-2.63-.08a43.73,43.73,0,0,1-9.94-2,38.55,38.55,0,0,1-17.08-11.2,27.66,27.66,0,0,1-5.57-10,16.87,16.87,0,0,1-.73-2.9c-.16-1-.36-2-.43-3s0-2,0-3a21.18,21.18,0,0,1,.29-3,26.78,26.78,0,0,1,4.17-10.95,32.43,32.43,0,0,1,3.45-4.4c.63-.65,1.27-1.3,1.92-1.93l2-1.69a15.53,15.53,0,0,1,1.58-1.28l1.62-1.2c1.1-.77,2.23-1.41,3.35-2.11a38.22,38.22,0,0,0-11.41,8.34c-.84.93-1.63,2-2.41,2.94s-1.42,2.2-2.1,3.32-1.15,2.43-1.65,3.67-.83,2.6-1.12,3.93-.44,2.69-.52,4,0,2.72.09,4.07a35.68,35.68,0,0,0,.69,4l.59,1.94a12.86,12.86,0,0,0,.69,1.89A31.54,31.54,0,0,0,112,323.49a40.37,40.37,0,0,0,11.58,6.77A41,41,0,0,0,136.46,333a49,49,0,0,0,6.1-.18l1.44-.1,1.41-.19,2.8-.38c1.86-.26,3.64-.72,5.44-1.07s3.5-.93,5.23-1.39c1.37-.36,2.82-.94,4.39-1.47s3.17-1.19,4.77-1.84l2.38-1,2.27-1c1.47-.66,2.9-1.23,4.13-1.79,5.88-2.57,11.4-5.51,16.78-8.52,2.65-1.56,5.32-3.07,7.87-4.7l3.85-2.41,3.76-2.48c5-3.3,9.85-6.73,14.63-10.18L230.8,289c2.36-1.88,4.77-3.68,7.07-5.64-2.21,1.86-4.54,3.55-6.81,5.35s-4.57,3.33-6.87,5l-7,4.94c-2.38,1.61-4.75,3.27-7.19,4.86Z"/><path class="cls-2" d="M215,317.32l-3.31,3.35s0-.1,0-.15C212.83,319.35,213.92,318.29,215,317.32Z"/><path class="cls-2" d="M219.33,315.22l-1.05,1a1.53,1.53,0,0,0,.13-.28Z"/><path class="cls-2" d="M211.61,320.52c-.1-.59.94-2.33-1.08-.95-1.83,1.87-5.42,5.67-7.18,7.63-2,1.78-.39-.35-.58-.52-1.78,1.94-3.51,3.94-3.64,3.91-1.39,1.1.32-1.34,3.71-5.16,4.34-3.72,11.7-10.49,15.48-13.47,1.89-1.49,2.82-2.09,2-1S216.72,314.94,211.61,320.52Z"/><path class="cls-2" d="M227.28,306.88q-5.09,4.59-9.95,9.38c-1.22.78-2.8,1.93-2,.74A128.08,128.08,0,0,1,227.28,306.88Z"/><path class="cls-2" d="M219.77,223.26c.08,0,.2-.19.51-2.45-.18.86-.31,1.66-.51,2.45-.08,0-.15-.15-.45.94,2.16-8.44,3.07-18.84,2.9-28.89.1-1.32.2-2.58.29-3.74a144.19,144.19,0,0,1-.36,18.61A89,89,0,0,1,219,227.94a51.7,51.7,0,0,1-3.15,8,31.44,31.44,0,0,1-4.58,6.7,18.76,18.76,0,0,1-6,4.47,16.13,16.13,0,0,1-6.85,1.66,18.46,18.46,0,0,0,8.52-2.84,22.57,22.57,0,0,0,6.05-5.84,37.35,37.35,0,0,0,4.08-7.67A56.16,56.16,0,0,0,219.77,223.26Z"/><path class="cls-2" d="M223.2,189.58c-.06-.86-.11-1.69-.19-2.53C223.32,189.31,223.27,189.56,223.2,189.58Z"/><path class="cls-2" d="M265.71,177.8a52.15,52.15,0,0,1,4.75,20,74.79,74.79,0,0,1-1.76,19.59c.28-1.71.6-3.41.85-5.12s.4-3.45.49-5.18.21-3.47.17-5.19-.08-3.44-.21-5.14a53.11,53.11,0,0,0-4.94-19.1,35.36,35.36,0,0,0-5-7.69c-.51-.53-1-1.1-1.51-1.61s-1-1-1.61-1.49c-1.17-1-2.36-2-3.57-2.85a63.42,63.42,0,0,0-15-8.07,62.19,62.19,0,0,1,16,8.52c.61.46,1.22.9,1.8,1.39s1.2,1,1.7,1.45a19.86,19.86,0,0,1,1.55,1.49c.49.53,1,1,1.45,1.61A37.17,37.17,0,0,1,265.71,177.8Z"/><path class="cls-2" d="M233.52,270.5c13.8-12.18,23-24.22,29-37a90.44,90.44,0,0,1-11,18.55c-1.14,1.41-2.2,2.87-3.39,4.23l-3.6,4.07-3.83,3.87c-.62.66-1.29,1.28-2,1.89l-2,1.83C235.69,268.78,234.61,269.74,233.52,270.5Z"/><path class="cls-2" d="M248.47,256.66c10.71-12.86,17.17-25.69,20.23-39.27A79.54,79.54,0,0,1,260.88,239,92.83,92.83,0,0,1,248.47,256.66Z"/><path class="cls-2" d="M181.06,152.65a49.21,49.21,0,0,0-7.19,5.6c-.94,1-1.88,1.86-2.67,2.76s-1.54,1.75-2.18,2.58L167.24,166c-.5.76-1,1.47-1.41,2.13-.9,1.31-1.49,2.5-2.07,3.47a62,62,0,0,0-4,7.18c.29-.71.6-1.46.88-2.16.63-1.57,1.48-3.06,2.22-4.58s1.64-3,2.62-4.41a56,56,0,0,1,6.4-8.21,46,46,0,0,1,8.16-6.95,54.81,54.81,0,0,1,9.31-5,66.86,66.86,0,0,1,14.74-3.92A63.25,63.25,0,0,0,181.06,152.65Z"/><path class="cls-2" d="M163.76,171.56c.61-.87,1.1-1.58,1.49-2.15s.74-.94,1-1.22c.47-.55.58-.61.45-.35s-.49.83-1,1.57-1,1.67-1.57,2.58c-1.07,1.85-2.11,3.71-2.4,4.13S161.72,175.44,163.76,171.56Z"/><path class="cls-2" d="M234.64,143.47l1.38-1.26c.62-.64,1.21-1.32,1.83-2s1.09-1.44,1.63-2.15a27.87,27.87,0,0,1-2.26,2.86c-.41.44-.78.91-1.22,1.32Z"/><path class="cls-2" d="M216.85,144.56a19.62,19.62,0,0,1-3.24-1.21l-1.54-.73-1.41-.92-.71-.46c-.22-.17-.42-.36-.63-.54l-1.26-1.09A19.74,19.74,0,0,1,206,137a19.41,19.41,0,0,1-2.79-6.09,28.68,28.68,0,0,1-1-6.82,24.44,24.44,0,0,0,4,13.12,8.2,8.2,0,0,0,1,1.31,13,13,0,0,0,1.12,1.22,17.28,17.28,0,0,0,2.62,2,14.58,14.58,0,0,0,1.41.89l1.53.72.76.37.81.27,1.61.53a10.35,10.35,0,0,0,1.66.42l1.68.35c.53.13,1.16.23,1.78.33L224,146c2.43.45,4.83,1,7.16,1.56a77.91,77.91,0,0,1,13.15,4.55,74.78,74.78,0,0,0-7.5-2.61,78.19,78.19,0,0,0-9.16-2.71c-1.77-.39-3.62-.78-5.53-1.09-1-.15-1.84-.35-2.71-.53A17.28,17.28,0,0,1,216.85,144.56Z"/><path class="cls-2" d="M167.64,179.75a51.64,51.64,0,0,1,11.67-17.11,45,45,0,0,1,17.7-10,86.43,86.43,0,0,1,19.91-3.48c.84-.07,1.68-.12,2.52-.16l1.25-.07,1.31-.14a22.6,22.6,0,0,0,5.14-1.07,23.12,23.12,0,0,0,8.88-5.49,32.93,32.93,0,0,0,8.71-18.68,34.7,34.7,0,0,0-.2-10.33,41.77,41.77,0,0,0-2.89-9.83,34.41,34.41,0,0,0-5.39-8.71,21.39,21.39,0,0,0-8.4-6.12l-.62-.24c-.21-.07-.43-.12-.65-.17l-1.31-.32a24,24,0,0,0-2.68-.25,17.92,17.92,0,0,0-5.21.85,23,23,0,0,0-8.74,5.36A37.1,37.1,0,0,0,199,110.94a45.42,45.42,0,0,0-1.46,9.64,38.3,38.3,0,0,0,.71,9.72,26.57,26.57,0,0,0,3.71,9.17,22.08,22.08,0,0,0,7.14,6.93,15.09,15.09,0,0,0,2.16,1.18l1.11.53.55.27.58.2a31.11,31.11,0,0,0,4.61,1.37l2.33.5,2.13.38c1.42.25,2.82.56,4.22.87a86,86,0,0,1,15.4,5,61.58,61.58,0,0,1,15.24,9.53,36.39,36.39,0,0,1,10.24,15.4A59.45,59.45,0,0,1,271,201.19a78.32,78.32,0,0,1-9.43,38c-1.43,2.8-3.14,5.39-4.77,7.93-1.78,2.44-3.46,4.86-5.36,7s-3.75,4.23-5.59,6.18c-.89,1-1.92,1.85-2.84,2.75l-2.78,2.57,4.31-4.5c1.36-1.5,2.63-3,3.92-4.49-2,2.11-3.82,4.19-5.85,6-1,.93-1.94,1.86-2.92,2.73l-3,2.5c-.76.68-1.49,1.38-2.27,2l-2.37,1.94c-1.57,1.29-3.13,2.6-4.8,3.78s-3.24,2.44-5,3.64l-5.16,3.59c-6.92,4.72-13.9,9.28-21,13.53A217,217,0,0,1,174.45,308a113.08,113.08,0,0,1-22.59,7.75,64.74,64.74,0,0,1-11.4,1.38l-1.42,0a12.13,12.13,0,0,1-1.24,0,18.72,18.72,0,0,1-2.43-.25c-.81-.1-1.63-.35-2.45-.5s-1.64-.46-2.42-.78a25.09,25.09,0,0,1-8.47-5.11,16.11,16.11,0,0,1-1.54-1.69l-.7-.87c-.18-.31-.36-.62-.55-.92l-.28-.45a4.69,4.69,0,0,1-.21-.46c-.13-.32-.27-.62-.42-.93s-.18-.63-.28-.94a4,4,0,0,1-.24-.95c0-.32-.08-.64-.14-1a4.48,4.48,0,0,1,0-1,8.18,8.18,0,0,1,0-1c.06-.32.11-.64.15-1l.06-.49.16-.47.27-.94c.12-.31.29-.61.42-.92a4.14,4.14,0,0,1,.47-.91,18.81,18.81,0,0,1,6.68-6.36,32.54,32.54,0,0,1,9.92-3.66,24.32,24.32,0,0,1,2.69-.44l1.36-.16c.46,0,.91,0,1.37-.08l1.37-.07,1.37,0,1.37,0,1.42.13a68.84,68.84,0,0,1,12.7,2.58c4.09,1.16,8.18,2.6,12.88,4.27,9.51,3.41,18.83,7.44,28.12,11.53,0,0-.1,0-.37-.07,9.64,4.27,19.26,8.7,29.09,12.93,4.91,2.12,9.89,4.19,15,6.14s10.28,3.77,15.73,5.31a81.15,81.15,0,0,0,17.45,3.17,137.53,137.53,0,0,0,17.08-.18,74.36,74.36,0,0,0,17.87-3.4,43.08,43.08,0,0,0,9.11-4.23,32.06,32.06,0,0,0,8.26-7.23,29.58,29.58,0,0,0,5.05-9.41,34.1,34.1,0,0,0,1.61-10.17,28,28,0,0,0-2-10.76,28.34,28.34,0,0,0-2.67-4.94,29.18,29.18,0,0,0-3.51-4.19,33.88,33.88,0,0,0-8.33-6,44.71,44.71,0,0,0-8.88-3.39,60.84,60.84,0,0,0-17.78-1.91,38.17,38.17,0,0,0-8.66,1.31l-2.6.83-1.51.46-1.83.63c-10.92,3.73-19.08,8.8-27.14,14.28a246.68,246.68,0,0,0-24.57,19.74l.27.3c-2.75,2.38-5.14,4.58-7,6.44,4.57-3.38,12.43-9.59,16.46-12.23,2-1.35,3-1.86,2-.81s-3.89,3.62-9.39,8.81h0l3.58-2.93.38-.33s0,0,0,0a108.28,108.28,0,0,1,12.8-9.05c-3.67,2.69-7.22,5.55-10.72,8.47.77-.41,1.32-.63,1.08-.19l1-.68,2.87-2.34a10.18,10.18,0,0,1,1.35-.67c4.82-3.47,11.16-7.75,16.11-10.57,1.23-.72,2.37-1.35,3.37-1.86s1.84-1,2.49-1.26c1.31-.58,1.8-.71,1.08-.16-2.27,1.54-9.85,5.63-17.77,11.41-.45.39-1,.83-1.5,1.28a42.53,42.53,0,0,1,4.58-3.12c.64-.34.58-.16.38.12-.39.56-1.29,1.48,1.87-.68a137.88,137.88,0,0,1,13-8,90.71,90.71,0,0,1,13.82-6.18,48.77,48.77,0,0,1,28.94-1.44A29.62,29.62,0,0,1,320,282.83a17.13,17.13,0,0,1,5.92,11.35,21.75,21.75,0,0,1-.38,6.62,20.87,20.87,0,0,1-2.28,6.18,20.19,20.19,0,0,1-4.17,5.1,26.28,26.28,0,0,1-5.65,3.71,47.72,47.72,0,0,1-13.55,4,97.22,97.22,0,0,1-14.82,1c-1.79,0-3.56,0-5.34-.09l-1.84-.07-1.77-.14c-1.18-.07-2.35-.26-3.53-.43-2.34-.35-4.67-.85-7-1.43-4.62-1.16-9.16-2.63-13.66-4.22-9-3.22-17.81-6.95-26.77-10.81l3.46,1.78c-14.45-6.15-28.76-12.81-43.41-18.87q-6.73-2.81-13.65-5.24a139.51,139.51,0,0,0-14.17-4.23,66,66,0,0,0-15.06-1.95,46.85,46.85,0,0,0-15.35,2.7c-1.25.43-2.45,1-3.67,1.53l-1.78.93-.89.48-.85.54-1.71,1.11-1.61,1.27-.81.64-.75.72c-.49.49-1,1-1.48,1.48a25.39,25.39,0,0,0-4.56,7.24,22.56,22.56,0,0,0-1.38,8.66A22.05,22.05,0,0,0,109.8,311a27.22,27.22,0,0,0,5.22,6.91,36,36,0,0,0,23.55,9.5c1.43,0,2.83-.09,4.25-.14s2.81-.26,4.21-.39a93.73,93.73,0,0,0,16.25-3.59,168.2,168.2,0,0,0,29.78-13.22c9.45-5.21,18.57-11,27.54-17,4.49-3,8.93-6.09,13.4-9.45l1.68-1.24L237.3,281l3.25-2.65c1.1-.86,2.12-1.84,3.17-2.77l3.14-2.84-5.17,4.61-5.37,4.34c-3.66,2.77-7.41,5.5-11.15,8-7.49,5.12-15.14,10.14-23.1,14.93a221.36,221.36,0,0,1-21.79,11.88c7.62-3.65,14.82-7.67,21.79-11.88s13.56-8.65,20.11-13.17,13-9.23,18.92-14.27a151.09,151.09,0,0,0,15.92-16,119,119,0,0,0,11.89-16.76c.58-1.26.85-1.9,1.12-2.53l.45-1c.15-.39.35-.86.62-1.47a88.74,88.74,0,0,0,7.43-27l.33-3.39c.13-1.13.11-2.26.17-3.38.11-2.23.13-4.46,0-6.66a78.67,78.67,0,0,0-1.5-12.76,6.37,6.37,0,0,0-.21-1.25c-.15-.73-.43-1.65-.64-2.5-.45-1.7-.9-3-.3-1.76a52.06,52.06,0,0,0-5.67-12,43.22,43.22,0,0,0-4.35-5.58l-1.24-1.31-1.34-1.24-.67-.61-.66-.54-1.32-1.08a70.85,70.85,0,0,0-11.37-7.31,83.82,83.82,0,0,0-11.89-4.92c-3.4-1.1-6.82-2-10.26-2.82-1.71-.38-3.43-.75-5.16-1.07-.94-.17-1.53-.35-2.21-.52s-1.36-.3-2-.53a18.08,18.08,0,0,1-6.76-3.5,14.39,14.39,0,0,1-4.09-5.9c-1.86-4.71-1.92-11-.78-16.72a29.55,29.55,0,0,1,7.48-14.79c3.67-3.76,8.27-5,11.11-3.5a13.69,13.69,0,0,1,5.13,4.44,28.11,28.11,0,0,1,3.88,7.33,32.17,32.17,0,0,1,1.81,8.41,25.28,25.28,0,0,1-.74,8.18c-1.36,5.42-4.5,10.36-8.49,12.74a13.87,13.87,0,0,1-6.6,2c-3.82.2-7.77.52-11.76,1.08-7.9,1.13-16.75,3.3-25,7.95a49.21,49.21,0,0,0-11.31,8.71A59,59,0,0,0,164,168.37a62.88,62.88,0,0,1,5.7-7.77l.79-.93.85-.89c.58-.59,1.14-1.2,1.74-1.77a47.54,47.54,0,0,1,3.82-3.28,55.58,55.58,0,0,1,17.39-9,90.2,90.2,0,0,1,18.29-3.6c1.51-.15,3-.27,4.52-.38l2.25-.13.57,0a4.82,4.82,0,0,0,.49,0l.72-.09.73-.07a2.7,2.7,0,0,0,.71-.11c.46-.12.93-.23,1.4-.33a14.5,14.5,0,0,0,7-4.83,21.77,21.77,0,0,0,3.23-5.23,27.34,27.34,0,0,0,2.33-12.12A33.76,33.76,0,0,0,233.62,106c-.36-.92-.86-1.73-1.28-2.59s-1-1.61-1.49-2.29a23.93,23.93,0,0,0-1.6-2c-.27-.29-.56-.55-.84-.83a6.28,6.28,0,0,0-.84-.74,7,7,0,0,0-.79-.61c-.27-.16-.54-.32-.8-.5s-.54-.23-.8-.37l-.39-.19-.39-.1a5.69,5.69,0,0,0-.78-.22,6.76,6.76,0,0,1-.77-.1,6.46,6.46,0,0,0-.88,0h-.45l-.46.08a8.48,8.48,0,0,1,2.6,0c.39.07.79.21,1.2.29s.82.32,1.23.55a15.7,15.7,0,0,1,4.81,4.28,30.75,30.75,0,0,1,5.7,13.87l.15.94.08.94a14.9,14.9,0,0,1,.11,1.85,25.79,25.79,0,0,1-.16,3.61,26.23,26.23,0,0,1-1.83,7.06,24,24,0,0,1-3.51,6,16.55,16.55,0,0,1-4.87,4,15.17,15.17,0,0,1-6.35,1.93c-3.47.23-7,.57-10.52,1.09a78.42,78.42,0,0,0-21.21,5.88l.84-.36a73,73,0,0,1,8.29-2.82c2.78-.72,5.58-1.33,8.37-1.78s5.56-.8,8.33-1c1.38-.12,2.76-.23,4.13-.3l1-.06.51,0a4.38,4.38,0,0,0,.46,0c.46-.06.93-.11,1.4-.15a5.5,5.5,0,0,0,1.28-.27c.41-.12.84-.2,1.24-.34a16.82,16.82,0,0,0,2.32-1.06,16.29,16.29,0,0,0,4.1-3.21l.89-1c.3-.33.54-.74.81-1.1a24.51,24.51,0,0,0,1.48-2.35,26.33,26.33,0,0,0,2.12-5.22,27.53,27.53,0,0,0,1.06-5.47,24.28,24.28,0,0,0,.1-2.68,23.06,23.06,0,0,0-.17-2.71,34.69,34.69,0,0,0-2.75-10.31c-.31-.81-.74-1.52-1.1-2.28s-.82-1.4-1.23-2.08c-1.83-2.68-4.14-5-6.49-5.91a12.24,12.24,0,0,1,3.29,2,19.86,19.86,0,0,1,1.54,1.51l.75.83.68.92a29.33,29.33,0,0,1,4.3,8.48,33.49,33.49,0,0,1,1.63,9.44,27.93,27.93,0,0,1-1.45,9.12,23.78,23.78,0,0,1-5.68,9.37,17.64,17.64,0,0,1-2,1.62c-.34.22-.67.5-1,.7l-1.09.58a5.18,5.18,0,0,1-1.11.48l-1.14.44-1.19.27-.58.15c-.2.05-.42,0-.62.07l-1.56.21-2.29.18c-1.53.13-3.06.26-4.61.45-3.09.35-6.2.8-9.32,1.45l2-.27a63.67,63.67,0,0,1,11.37-.49c.86.05,1.61.11,2.2.18l.74.12a1.1,1.1,0,0,1,.35.11c.15.08.12.18-.14.29a10,10,0,0,1-1.93.34,111.42,111.42,0,0,0-15.95,2.2,68.15,68.15,0,0,0-8.25,2.3,53.8,53.8,0,0,0-8.05,3.49c-1.32.67-2.57,1.47-3.84,2.24s-2.45,1.67-3.59,2.62-2.24,1.93-3.32,2.93c-.53.5-1,1-1.51,1.56s-1,1-1.44,1.61A59.2,59.2,0,0,0,164,176.39,62.84,62.84,0,0,0,158.33,201c-.09,1.58,0,3,0,4.26s.16,2.31.26,3.18.17,1.54.23,2a3.26,3.26,0,0,0,.11.67c.07.16.08,0,0-.34s-.05-1-.12-1.91a63.76,63.76,0,0,1-.19-7.61c0-.81.08-1.65.12-2.53s.18-1.77.28-2.7.23-1.88.41-2.84.29-2,.55-3A61.76,61.76,0,0,1,164,178c3.48-8,8.84-15.18,13.86-19.42a44.13,44.13,0,0,1,6.18-4.47,9.92,9.92,0,0,1,2-1.08,45.61,45.61,0,0,0-9.76,7.53,43.24,43.24,0,0,1,9.06-6.56,58.2,58.2,0,0,1,12.18-5.18,62.78,62.78,0,0,1,10.79-2.27c2.3-.29,4.64-.48,7-.66,1.19-.06,2.38-.15,3.58-.2l1.79-.09,1.6-.17a19.39,19.39,0,0,0,11.59-5.79A27.76,27.76,0,0,0,238,134a31.19,31.19,0,0,0,2.7-6.62,32.35,32.35,0,0,0,.79-14.43,38.69,38.69,0,0,0-2.66-9.31,30.86,30.86,0,0,0-5.55-8.74,19.74,19.74,0,0,0-4.15-3.35,15,15,0,0,0-2.41-1.18c-.42-.17-.86-.25-1.3-.38l-.65-.19c-.22,0-.45,0-.67-.08l-1.36-.16-1.38.05a7,7,0,0,0-1.38.15,12.9,12.9,0,0,0-1.38.26,18.68,18.68,0,0,0-2.67.91,20.13,20.13,0,0,0-2.53,1.3c0-.06-.47.16-1,.57a14.36,14.36,0,0,0-1.87,1.45c-1.24,1-2.07,2-1.31,1a33.53,33.53,0,0,0-6.23,9.21,41.5,41.5,0,0,0-3.22,10.3,52.16,52.16,0,0,0-.34,15.82l.28,1a33.77,33.77,0,0,0,1.32,4,22.81,22.81,0,0,0,12.74,11.69l2,.65,1,.33c.32.09.65.14,1,.22,1.3.26,2.65.6,3.88.78q3.74.63,7.32,1.52c9.53,2.39,18.52,6.1,26.86,12.67a35.49,35.49,0,0,1,7.65,7.58,42.74,42.74,0,0,1,5.28,9.72,41.15,41.15,0,0,0-3.91-7.61,38.66,38.66,0,0,0-5.36-6.52c-.57-.55-1.14-1.11-1.78-1.63s-1.24-1.05-1.88-1.54a69.1,69.1,0,0,0-25.12-11.83c-2.24-.59-4.5-1.07-6.76-1.51l-3.42-.61-3.58-.76c-1.17-.35-2.33-.77-3.49-1.16s-2.24-1-3.32-1.62a22.23,22.23,0,0,1-5.67-4.73c-.26-.31-.56-.67-.86-1.07l-.86-1.39A24.35,24.35,0,0,1,201,135.6a28.92,28.92,0,0,1-1.45-3.93c0-.34-.09-.7-.15-1.09a43,43,0,0,1,3.73-27.21,33.3,33.3,0,0,1,3.72-5.75A25.94,25.94,0,0,1,211.55,93a20.17,20.17,0,0,1,5.53-3A16.1,16.1,0,0,1,222.9,89a15.61,15.61,0,0,1,9.68,4.13,29.56,29.56,0,0,1,6.56,8.58A39.45,39.45,0,0,1,242.76,112a33.84,33.84,0,0,1-2.54,21.52,27.53,27.53,0,0,1-6.5,8.8,21.34,21.34,0,0,1-9.65,4.93,41,41,0,0,1-5.44.65q-2.74.23-5.46.54c1.81-.18,3.61-.33,5.42-.44a46,46,0,0,0,5.38-.51,21.7,21.7,0,0,0,9.68-4.55,27.25,27.25,0,0,0,6.74-8.32,34.27,34.27,0,0,0,3.5-10.09,34.22,34.22,0,0,1-4.7,12.24,24.59,24.59,0,0,1-9.23,8.7,21.74,21.74,0,0,1-5.89,2.11c-1,.22-2.06.26-3.08.4s-2.05.12-3.07.19a109.79,109.79,0,0,0-12.1,1.42,69.36,69.36,0,0,0-7.2,1.76,51.3,51.3,0,0,0-14,6.47,50.57,50.57,0,0,1,12.91-6.27,51.28,51.28,0,0,0-13.11,6,43.09,43.09,0,0,0-10.49,9.7A58.2,58.2,0,0,0,162,204.32a60,60,0,0,0,1.2,9.93,70.71,70.71,0,0,0,2.58,9.67,51.74,51.74,0,0,0,9.82,17.56,35.85,35.85,0,0,0,7.69,6.78,26.17,26.17,0,0,0,9.58,4,21.79,21.79,0,0,0,10.49-.52,22,22,0,0,0,9-5.35,30.88,30.88,0,0,0,6-8.38,53.35,53.35,0,0,0,3.66-9.45,96.88,96.88,0,0,0,3.2-19.68l-.78,3.49c-.31,3.16-.78,6.31-1.39,9.43a67.25,67.25,0,0,1-2.41,9.2,46.73,46.73,0,0,1-3.87,8.63,28.32,28.32,0,0,1-6,7.2,21.23,21.23,0,0,1-8.11,4.31,21.8,21.8,0,0,1-8.86.44l-2.12-.47a20.14,20.14,0,0,1-2-.68,27.42,27.42,0,0,1-3.81-1.74c-.6-.35-1.16-.74-1.73-1.1a15,15,0,0,1-1.66-1.17,28.67,28.67,0,0,1-3-2.59c5.39,4.93,11.47,7.61,17.68,7.71l2.33-.14c.76-.1,1.52-.29,2.29-.43a15.24,15.24,0,0,0,2.25-.67,11.5,11.5,0,0,0,1.12-.4l1.08-.53a22.61,22.61,0,0,0,7.73-6.38c-.07,0-.07-.22-.83.69a39.24,39.24,0,0,0,7-12.62,75.74,75.74,0,0,0,3.47-15,97.08,97.08,0,0,1-3,10.19,72.73,72.73,0,0,1-3.24,8.67A31.68,31.68,0,0,1,211.4,244a20.52,20.52,0,0,1-2.24,2,10.67,10.67,0,0,1-1.22.86c-.42.27-.82.56-1.26.81a19.9,19.9,0,0,1-17.11,1,29.58,29.58,0,0,1-9.82-6.46c-.35-.35-.73-.67-1.06-1l-1-1.11a25.67,25.67,0,0,1-1.89-2.28c-.58-.8-1.19-1.59-1.75-2.4l-1.55-2.54a55.32,55.32,0,0,1-4.81-10.87,71.7,71.7,0,0,1-2.76-11.62,53.84,53.84,0,0,1,1.64-23.73,55.1,55.1,0,0,1,9.56-19.08,40.15,40.15,0,0,1,7.55-7.47,44.65,44.65,0,0,1,9.23-5.28,73.91,73.91,0,0,1,20.77-5.09c1.79-.21,3.57-.37,5.36-.5.9-.07,1.78-.11,2.74-.25l1.42-.18c.23,0,.47-.05.7-.09l.69-.18a22.85,22.85,0,0,0,10-5.13,22.67,22.67,0,0,1-9.86,4.94,15.51,15.51,0,0,1-2.7.44l-1.35.14-1.3.08c-1.72.09-3.43.22-5.13.38a80,80,0,0,0-19.63,4.09,44.06,44.06,0,0,0-16.42,10.27,46.77,46.77,0,0,0-6,7.51c-.91,1.32-1.67,2.73-2.48,4.11S168.24,178.27,167.64,179.75Zm107.83,94.18,2-.69,2-.58,2.07-.58,2.11-.45-1.23.39C279.89,272.69,277.38,273.35,275.47,273.93Zm55.66,18.54a22.73,22.73,0,0,0-2.74-7.65,24.16,24.16,0,0,0-5.56-6.47,37.12,37.12,0,0,0-15.65-7.18,53.86,53.86,0,0,0-8.71-1.2c-1.47-.1-3-.12-4.43-.11s-3,.16-4.56.27a66,66,0,0,0-17.29,4.65c-.14,0-.23,0-.24,0A66.07,66.07,0,0,1,287,270.23a34,34,0,0,1,4.22-.5l2.16-.14c.71,0,1.41,0,2.12,0a60.1,60.1,0,0,1,8.61.71A40.84,40.84,0,0,1,321,276.66a25.43,25.43,0,0,1,6.72,6.8A22.22,22.22,0,0,1,331.13,292.47ZM273.74,329h.48s-.05,0-.05.06S273.88,329,273.74,329ZM219.53,286.5c-8.61,5.59-18.33,11.81-28.95,17.65-2.63,1.5-5.38,2.85-8.12,4.28s-5.57,2.71-8.45,3.92a117.45,117.45,0,0,1-17.7,6.18l-2.74.62-1.37.31-1.4.21-2.84.42c-1,.13-1.94.16-2.94.25-2,.22-4,.14-6.2.2a32.68,32.68,0,0,1-6.38-.89,28,28,0,0,1-12.57-7,20.5,20.5,0,0,1-3.52-4.72,15.7,15.7,0,0,1-1.55-5.5,14.71,14.71,0,0,0,2,5.57,13.05,13.05,0,0,1-1.57-9,14.58,14.58,0,0,1,3.85-7.32,25.34,25.34,0,0,1,7.39-5.26,39.65,39.65,0,0,1,10.31-3.3,5.43,5.43,0,0,0,1.45.06c.44,0,.94,0,1.47-.07s1.11,0,1.68-.05a18.92,18.92,0,0,1,2.13,0c.71,0,1.41,0,2.14.07,1.45.15,2.89.23,4.36.49a86.3,86.3,0,0,1,8.67,1.72,126.83,126.83,0,0,1,15.75,5.08c11.8,4.45,23.49,9.68,32.81,14.07,2.36,1,6.89,3.49,11.58,5.7,5.75,2.59,11.56,5.15,17.45,7.59l-.76-.2c-4.81-2-9.63-4.05-14.37-6.22-14.14-6.48-30.33-14.26-44.48-19.69-8.83-3.37-17.64-6.32-26.23-7.74a43.3,43.3,0,0,0-12.45-.43,35.17,35.17,0,0,0-11.55,3.33,22.37,22.37,0,0,0-2.54,1.42c-.4.26-.82.5-1.2.78l-1.11.86-.56.43-.49.48-1,.94c-.3.34-.57.69-.86,1a6.48,6.48,0,0,0-.79,1l-.71,1.09c-.21.37-.36.76-.55,1.14l-.28.56a4.62,4.62,0,0,0-.19.6l-.39,1.18a13.75,13.75,0,0,0-.21,4.95c.36,3.3,2.33,6.4,5,9a28.09,28.09,0,0,0,9.92,5.9,28.57,28.57,0,0,0,4.87,1.26l1.24.2,1.22.09a20.35,20.35,0,0,0,2.62.06c.9,0,1.81,0,2.71,0l2.73-.23c1.82-.09,3.63-.48,5.44-.73,10.92-1.92,22.72-6.7,33.14-12.06s19.73-11,26.37-14.87C213,290.65,217.26,287.74,219.53,286.5ZM245.76,273l-3.93,3.48c-1.32,1.17-2.74,2.23-4.12,3.35-2.72,2.29-5.68,4.3-8.57,6.43-5.84,4-11.73,8.07-17.74,11.89s-12,7.54-18.1,10.9-12.08,6.5-18.09,9.09a113,113,0,0,1-20.44,6.7l-1.58.35-1.61.27-3.26.52-3.32.32c-.56.05-1.11.11-1.67.14l-1.68,0c-1.13,0-2.22.08-3.37,0a27.83,27.83,0,0,1-3.44-.32c-.56-.09-1.13-.16-1.68-.27l-1.62-.39c-1.09-.22-2.11-.63-3.14-.94a33.2,33.2,0,0,1-10.3-5.79,23.81,23.81,0,0,1-5.79-6.88l-.76-1.46-.46-1.29a5.9,5.9,0,0,1-.43-1.7c0-.75.15-.56.81.6.84,3.16,3.66,8,9.19,11.81a34.29,34.29,0,0,0,9.87,4.63c.95.28,1.94.48,2.93.72s2,.34,3.11.42a57.28,57.28,0,0,0,6.42,0,76.19,76.19,0,0,0,13.32-2.05l1.7-.39,1.68-.49,3.39-1,3.36-1.16c1.12-.39,2.26-.77,3.36-1.23a190,190,0,0,0,25.71-12.56c8.12-4.67,15.66-9.58,22.38-14.11,3.37-2.24,6.49-4.45,9.4-6.45,1.45-1,2.81-2.05,4.13-3s2.59-1.83,3.71-2.76c2.26-1.83,4.3-3.36,5.92-4.71s2.9-2.44,3.84-3.16a5.08,5.08,0,0,1,1.66-1C246.72,271.58,246.49,272.05,245.76,273ZM207.61,109.18a32.42,32.42,0,0,0-1.9,6.6,39.23,39.23,0,0,0-.65,7,27.92,27.92,0,0,0,.87,6.92,16.84,16.84,0,0,0,2.85,6.08,21.86,21.86,0,0,1-3.61-12.53,39.24,39.24,0,0,1,.54-7.24A33.61,33.61,0,0,1,207.61,109.18ZM269.15,175a38.09,38.09,0,0,0-7.46-10.51,57.53,57.53,0,0,0-10.43-7.89,78,78,0,0,0-24.68-9.21c-1.08-.21-2.16-.45-3.25-.62s-2.22-.34-3.2-.57-2-.39-3-.68-1.94-.62-2.89-1a19.36,19.36,0,0,1-9.05-7.38,24,24,0,0,1-3.58-11.2,41,41,0,0,1,.76-12,35.25,35.25,0,0,1,8-16.32,20.74,20.74,0,0,1,7.15-5.2,12.76,12.76,0,0,1,8.19-.61,15.79,15.79,0,0,1,7.07,4.62,28.57,28.57,0,0,1,4.88,7.36,33.44,33.44,0,0,1,3.18,16.46h-.39a22.29,22.29,0,0,0,.12-2.3A34,34,0,0,0,238,106.82a31.7,31.7,0,0,0-5.27-8.72l.68.93-.6-.79c-.21-.26-.44-.49-.66-.74a17.46,17.46,0,0,0-5.08-3.86c-.48-.18-1-.37-1.44-.58s-1-.24-1.51-.36-1-.11-1.57-.12-1.13,0-1.71.12a14.92,14.92,0,0,0-6.3,2.5,25.24,25.24,0,0,0-7.08,7.9,36.12,36.12,0,0,0-4.06,10.31c-1.55,7.28-1.51,15.36,1.68,21.54a17.69,17.69,0,0,0,6.95,7.34c.76.42,1.56.77,2.34,1.16s1.66.59,2.48.9a17.22,17.22,0,0,0,2.59.65c.88.19,1.72.39,2.74.55a88.3,88.3,0,0,1,22.14,6.57A63,63,0,0,1,256,158.91a56.16,56.16,0,0,1,5.05,4.14,32,32,0,0,1,2.31,2.35c.36.41.74.8,1.08,1.23l1,1.29a43.33,43.33,0,0,1,6.07,11.44,58.26,58.26,0,0,1,3.08,12.93,58.25,58.25,0,0,0-2.05-8.86A61.25,61.25,0,0,0,269.15,175Z"/><path class="cls-2" d="M202.5,150.16a69.55,69.55,0,0,0-8.08,2.33,54.57,54.57,0,0,0-7.7,3.54,42.22,42.22,0,0,0-7,4.94,45.35,45.35,0,0,0-5.87,6.28,58.93,58.93,0,0,0-11,23.89,55.48,55.48,0,0,0-1,16.13c.21,2.77.75,5.46,1.22,8.2a81.49,81.49,0,0,0,2.23,8.12,55.61,55.61,0,0,0,7.81,15.32,36.27,36.27,0,0,0,13.41,11.54l1,.49a6.92,6.92,0,0,0,1.06.43l2.19.74c.73.22,1.5.33,2.26.5.38.07.75.17,1.14.21l1.17.09a22.31,22.31,0,0,0,4.69-.11l2.28-.46a7.26,7.26,0,0,0,1.13-.31l1.11-.38a23.26,23.26,0,0,0,7.91-4.88,32.28,32.28,0,0,0,5.53-7.24A58.21,58.21,0,0,0,224,223a116.79,116.79,0,0,0,2.14-17c.44-1.31.84-1.46,1.18.19a108.86,108.86,0,0,1-2.27,18.5,64.16,64.16,0,0,1-2.67,9.13,40.7,40.7,0,0,1-4.38,8.75,28.9,28.9,0,0,1-7,7.44,22.92,22.92,0,0,1-9.6,4.1A23.81,23.81,0,0,1,191,253.7a32,32,0,0,1-9.18-4.26,44.31,44.31,0,0,1-13-14.43A64.2,64.2,0,0,1,162,217.34c-.43-1.52-.64-3.07-.94-4.61l-.42-2.32-.27-2.38a60.92,60.92,0,0,1-.24-9.55,63.44,63.44,0,0,1,4-18.56l.49-1.09a69.23,69.23,0,0,1,4.09-7.71,62.43,62.43,0,0,1,5.85-7.83,46,46,0,0,1,8-7,49.47,49.47,0,0,1,9.73-5.17,78.42,78.42,0,0,1,21.48-4.89c1.79-.18,3.58-.32,5.35-.42l1.32-.07c.43,0,.79-.09,1.19-.13a13.56,13.56,0,0,0,2.3-.33,19.94,19.94,0,0,0,8.13-3.74c4.69-3.62,7.9-9.21,9.45-15.15a31.26,31.26,0,0,0,1-9.18,38.52,38.52,0,0,0-1.61-9.2A36.78,36.78,0,0,0,237,99.45a25,25,0,0,0-6.18-6.94,13.88,13.88,0,0,0-8.59-3,17.39,17.39,0,0,0-8.9,2.75,17.72,17.72,0,0,1,6.27-2.65,13.34,13.34,0,0,1,6.7.19,17.52,17.52,0,0,1,5.9,3.22,27.3,27.3,0,0,1,4.55,5,37.48,37.48,0,0,1,5.48,12.28,40.32,40.32,0,0,1,1.08,6.64,33.58,33.58,0,0,1-4.7,19.23,24.09,24.09,0,0,1-9.51,9.09,9.45,9.45,0,0,1-1.52.69c-.52.2-1,.43-1.55.6l-1.61.43-.81.21c-.27.06-.55.07-.83.11-2.18.35-4.49.41-6.76.65A98.23,98.23,0,0,0,202.5,150.16Z"/><path class="cls-2" d="M262.53,233.47l.73-1.61c.22-.55.41-1.1.62-1.65l1.23-3.32c.63-2.26,1.44-4.49,1.89-6.8A72.94,72.94,0,0,0,269,206a63.77,63.77,0,0,0-1.65-19,40.6,40.6,0,0,0-7.57-15.77,28.35,28.35,0,0,0-2.86-3c-1-.95-2.24-1.93-3.4-2.83a59.64,59.64,0,0,0-7.5-4.85,73.12,73.12,0,0,0-16.91-6.46,67.14,67.14,0,0,1,24.28,10.7,50,50,0,0,1,5,4.12,34.55,34.55,0,0,1,4,4.83,42.51,42.51,0,0,1,5.39,11.73,61.83,61.83,0,0,1,1.5,25.07c-.18,2-.63,4-1,6-.15,1-.45,1.95-.69,2.91l-.74,2.89-.94,2.84c-.31.94-.59,1.89-1,2.81C264.11,229.78,263.46,231.67,262.53,233.47Z"/><path class="cls-2" d="M207.89,147.8a17.64,17.64,0,0,0,2.72,1.5L212,150c.47.22.95.34,1.42.52,1,.31,1.91.68,2.87.92l2.87.62c1,.23,1.77.34,2.61.5s1.65.29,2.46.46c1.64.32,3.25.7,4.86,1.1-1.64-.38-3.27-.74-4.93-1-.83-.17-1.66-.3-2.49-.43s-1.63-.25-2.66-.47l-2.9-.59c-1-.26-1.93-.6-2.89-.91a18.68,18.68,0,0,1-2.84-1.17l-1.4-.67c-.46-.22-.89-.54-1.34-.81A24.73,24.73,0,0,1,199,139a31.18,31.18,0,0,1-3.59-11.52,46.92,46.92,0,0,1,.11-11.49,44.88,44.88,0,0,1,2.91-11.13,39.22,39.22,0,0,1,5.88-10,27.76,27.76,0,0,1,9.4-7.62,20.12,20.12,0,0,1,10.38-2,19.17,19.17,0,0,1,9.83,3.95,29.11,29.11,0,0,1,6.65,7.23,38.06,38.06,0,0,1,4.2,8.45,44.93,44.93,0,0,1,2.23,9.06,37.82,37.82,0,0,1,0,9.45,36.21,36.21,0,0,1-2.33,9.11,32.73,32.73,0,0,1-4.63,8.27A28.59,28.59,0,0,1,233,147.2a26.36,26.36,0,0,1-9.11,3.46l-2.42.28c-.42.05-.77.07-1.11.09l-1.06.06c-1.4.08-2.79.19-4.18.31-2.79.24-5.54.61-8.27,1.08a61,61,0,0,0-15.66,4.75,45.16,45.16,0,0,0-6.94,4.12,41.47,41.47,0,0,0-5.95,5.45,52.06,52.06,0,0,0-8,12.4,52.93,52.93,0,0,1,8.16-12.88,41.92,41.92,0,0,1,5.5-5.16,44.55,44.55,0,0,1,6.4-4,58.67,58.67,0,0,1,14.45-5,108.25,108.25,0,0,1,15.38-2c.62,0,1.35-.12,2.06-.21s1.43-.15,2.13-.32a23.76,23.76,0,0,0,4.13-1.27,26.63,26.63,0,0,0,3.84-1.95,27.93,27.93,0,0,0,3.37-2.63,29.19,29.19,0,0,0,2.92-3.08,33.83,33.83,0,0,0,2.38-3.47,33.08,33.08,0,0,0,3.34-7.59,35.06,35.06,0,0,0,1.51-8.11,34.6,34.6,0,0,0-.39-8.21,40.9,40.9,0,0,0-5.59-15.17,29,29,0,0,0-5.24-6.34,19.75,19.75,0,0,0-7.31-4.34l-2.14-.52-2.22-.19c-.73,0-1.44.07-2.17.11a19.15,19.15,0,0,0-2.12.36,21.69,21.69,0,0,0-7.6,3.52,27.65,27.65,0,0,0-5.83,5.64,36.34,36.34,0,0,0-2.31,3.26c-.65,1.15-1.36,2.27-1.89,3.47a43.66,43.66,0,0,0-4.12,15,48.37,48.37,0,0,0-.11,7.71,37.86,37.86,0,0,0,1.43,7.69l.69,1.87c.12.31.23.62.36.93l.45.9c.31.6.59,1.21.93,1.78l1.12,1.69A12,12,0,0,0,203,142.2c.45.51.87,1,1.36,1.51l1.52,1.34c.26.22.5.45.77.65l.83.56,1.68,1.1a19.43,19.43,0,0,0,1.76.9c.59.28,1.18.59,1.78.85l1.84.62c.61.2,1.22.43,1.83.6l1.86.4,1.85.4,1.68.3a91.43,91.43,0,0,1,12.83,3.16c1.2.41,2.54.86,3.78,1.36a85.65,85.65,0,0,0-11.88-3.33l-3.05-.58-3.08-.5-3.45-.68c-.29-.07-.58-.11-.87-.19l-.85-.27-1.72-.56a25.22,25.22,0,0,1-11.94-8.48,29.09,29.09,0,0,1-5.25-13.4,46.18,46.18,0,0,1,.32-13.75,42.42,42.42,0,0,1,4.41-13,33.12,33.12,0,0,1,9-10.78,22.18,22.18,0,0,1,6.47-3.49,15.53,15.53,0,0,1,1.8-.53l1.87-.37a18.4,18.4,0,0,1,3.86-.08A19.47,19.47,0,0,0,213.66,88a27.07,27.07,0,0,0-8,6.23,36.81,36.81,0,0,0-5.47,8.15,40.58,40.58,0,0,0-3.31,9.13,48.48,48.48,0,0,0-1.27,9.56,40.31,40.31,0,0,0,.8,9.8,28.24,28.24,0,0,0,3.9,9.52A23.48,23.48,0,0,0,207.89,147.8Z"/><path class="cls-2" d="M213.17,148.48c-2.48.31-4.92.65-7.35,1.15a71.59,71.59,0,0,0-8.33,2c1.65-.54,3.34-1,5-1.43A91,91,0,0,1,213.17,148.48Z"/><path class="cls-2" d="M232.76,98.1l-.58-.6a14,14,0,0,0-8.26-5l-1.14-.11-1.2.07a5.51,5.51,0,0,0-1.2.17,6.33,6.33,0,0,0-1.2.28l-1.19.38-1.16.54a6.65,6.65,0,0,0-1.14.62,11,11,0,0,0-1.12.7c-4.1,2.73-7.39,7.27-9.5,12.34a35.16,35.16,0,0,0-2.33,8,40.78,40.78,0,0,0-.58,8.55,42.38,42.38,0,0,1,.38-7.79,43.38,43.38,0,0,1,1.84-7.45,37.73,37.73,0,0,1,3.29-6.72,26.83,26.83,0,0,1,4.57-5.47,18.37,18.37,0,0,1,5.54-3.55,12.64,12.64,0,0,1,5.79-.83,11.74,11.74,0,0,1,5.09,1.92A21.18,21.18,0,0,1,232.76,98.1Z"/><path class="cls-2" d="M207.58,131.38l.28.74a8.39,8.39,0,0,0,.4.79l.44.86c.16.29.37.54.55.81s.36.56.55.81l.62.68c.2.22.38.44.56.63l.56.46a16.42,16.42,0,0,0,2.5,2.06,15,15,0,0,1-3.92-3.1,16.55,16.55,0,0,1-1.49-2.19A20,20,0,0,1,207.58,131.38Z"/><path class="cls-2" d="M268.91,244.45A87.6,87.6,0,0,0,275.83,228l.65-2.13c.22-.71.42-1.43.58-2.15.33-1.45.67-2.89,1-4.33.5-2.91,1-5.82,1.27-8.75,1.16-11.63.15-23.72-4.58-34.85a44.55,44.55,0,0,0-10.41-15.12c-.58-.54-1.16-1.08-1.72-1.52s-1.11-.95-1.7-1.39l-1.74-1.34-1.8-1.27a72.21,72.21,0,0,0-7.51-4.48,83.27,83.27,0,0,0-16.06-6.15c-2.74-.73-5.49-1.37-8.24-1.88-1.36-.27-2.78-.48-4.09-.72-1.06-.25-2.16-.43-3.18-.71l-2.26-.87c-.67-.38-1.33-.75-2-1.1.6.26,1.19.54,1.78.82s1.3.42,1.94.65c.33.1.64.23,1,.31l1.07.2,1.06.21c.38.07.63.14,1.15.21a108.58,108.58,0,0,1,11.06,2.18,78.13,78.13,0,0,1,21.13,8.54,65.94,65.94,0,0,1,9.27,6.65,40.78,40.78,0,0,1,7.85,9,54.62,54.62,0,0,1,7.71,20.79,64.41,64.41,0,0,1,.88,9.71c0,.86,0,1.73,0,2.58s0,1.69-.05,2.5c-.08,1.63-.15,3.16-.2,4.53A87.17,87.17,0,0,1,276.35,227c-.84,3.05-2,6-3.11,8.9l-1.92,4.26-.48,1.06-.54,1-1.09,2.05-1.09,2c-.38.67-.8,1.32-1.19,2-.82,1.31-1.6,2.63-2.44,3.91-1.77,2.48-3.45,5-5.4,7.34a126.11,126.11,0,0,1-12.23,13.24c1-1,2-2,3-3s2.06-2,3-3.1c1.91-2.16,3.9-4.27,5.66-6.61a102.75,102.75,0,0,0,9.88-14.69Z"/><path class="cls-3" d="M312.27,314.41a21.31,21.31,0,0,0,9-7.76,18.49,18.49,0,0,0,2.17-5.42,21.34,21.34,0,0,0,.55-5.92,14.91,14.91,0,0,0-4.48-10.05,25.37,25.37,0,0,0-10.42-5.9,46.3,46.3,0,0,0-12.55-1.93c-1.06,0-2.16,0-3.19,0s-2.06.13-3.09.24l-3.08.49-3.07.71a74.56,74.56,0,0,0-11.88,4.37,118.65,118.65,0,0,0-11.11,6,98,98,0,0,1,17.79-8.79,24.12,24.12,0,0,1,2.31-.78l2.32-.71,2.34-.56,1.17-.28,1.17-.18,2.35-.37,2.33-.17a40.39,40.39,0,0,1,4.8,0c-1.2-.05-2.4-.06-3.58,0s-2.29.17-3.42.24-2.26.34-3.38.51-2.22.51-3.33.75a75.07,75.07,0,0,0-12.82,4.79,113.33,113.33,0,0,0-12.32,6.79c-4.07,2.54-8.15,5.35-12.3,8.44,2.4-2,6.33-5,10.11-7.43s7.31-4.61,8.63-5.56c10.75-5.9,22.41-10.34,34.29-9,5.89.5,11.75,2,16.48,4.94a19,19,0,0,1,5.8,5.46,15.43,15.43,0,0,1,2.5,7.22,22.23,22.23,0,0,1-.07,4,23.31,23.31,0,0,1-.84,4,19.82,19.82,0,0,1-.68,1.87,19.08,19.08,0,0,1-.88,1.75,17.13,17.13,0,0,1-2.28,3.16,22.66,22.66,0,0,1-6.43,4.81,39.63,39.63,0,0,1-8,2.94,79.45,79.45,0,0,1-17.6,2.13c-3,.06-6,0-9-.12-.77,0-1.44-.1-2.15-.15s-1.4-.09-2.12-.22l-2.13-.31c-.71-.11-1.43-.28-2.14-.41l1.7.24c.55.07,1.1.11,1.64.17l1.59.16,1.54.07,1.5.08,1.58,0,3.05,0c4,0,7.61-.05,11.05-.25C300.48,318,306.69,317.1,312.27,314.41Z"/><path class="cls-3" d="M206.14,336.55c3.22-3.74,6.59-7.36,9.94-10.83C212.54,329.44,209.08,333.21,206.14,336.55Z"/><path class="cls-3" d="M204.11,299.32l3.65-2.35,3.61-2.41c2.4-1.57,4.74-3.22,7.06-4.8-2.31,1.62-4.64,3.28-7.05,4.85L207.77,297Z"/><path class="cls-3" d="M249.83,314.55c-2.86-1-5.71-2-8.6-3.12-21.44-8.71-42.44-19.46-65-27.87C200.82,292.6,225.69,305.18,249.83,314.55Z"/><path class="cls-3" d="M273.59,321.8l1.08.15,1.09.07,2.18.16c1.48.05,2.95.08,4.43.1,2.95,0,5.9,0,8.85-.21a71.56,71.56,0,0,0,17.28-2.89c5.49-1.73,10.78-4.54,14.29-9a23.4,23.4,0,0,0,4.72-15.74,23.32,23.32,0,0,1-4.65,15.73,23.7,23.7,0,0,1-6.36,5.55,35.74,35.74,0,0,1-7.85,3.5,70.69,70.69,0,0,1-17.27,2.91c-2.95.18-5.92.23-8.9.2-1.49,0-3-.06-4.47-.12-.75,0-1.48-.11-2.22-.16S274.32,321.92,273.59,321.8Z"/><path class="cls-3" d="M250.21,162.57c0,.11-.35-.07-.9-.35s-1.1-.58-1.55-.79a77.11,77.11,0,0,0-25.44-8.71c2.26.32,4.35.6,6.61,1.1a72.11,72.11,0,0,1,10.63,3.49A80.13,80.13,0,0,1,250.21,162.57Z"/><path class="cls-3" d="M198.63,302.71l-.5.35-2.53,1.55-2.53,1.47-.63.32,3.1-1.8Z"/><path class="cls-3" d="M258.89,169.41a1.77,1.77,0,0,0,.43,1l-1.17-1.28L256.89,168c-.88-.78-1.87-1.62-2.85-2.35a55.3,55.3,0,0,0-6.19-4.16l1.46.74a46.3,46.3,0,0,1,4.95,3.31c.88.64,1.72,1.36,2.55,2S258.29,168.78,258.89,169.41Z"/><path class="cls-3" d="M234.78,270.47c-2.57,2.1-4.6,4.27-5.83,5.25l-5.28,3.79L218,283.32c-3.85,2.56-7.87,5.2-12.26,8-1.29,1-4.18,2.75-6.81,4.59l-5.38,2.89c9.79-5.77,19.42-12.18,29-19a137.33,137.33,0,0,0,25.73-23.05l-3.08,3.55c-1.05,1.17-2.2,2.28-3.31,3.44l-1.68,1.73-1.8,1.65C237.23,268.24,236,269.38,234.78,270.47Z"/><path class="cls-3" d="M222.45,191.6a130.27,130.27,0,0,1-.81,23.58A84,84,0,0,1,219.27,227a48.74,48.74,0,0,1-4.51,11.06,24.38,24.38,0,0,1-7.76,8.42l-.58.39c-.2.12-.42.21-.63.32l-1.26.62c-.85.38-1.75.64-2.63.95s-1.83.43-2.75.53l-1.38.1-.69.06-.69,0a22.84,22.84,0,0,1-10.51-3.2,33.55,33.55,0,0,1-8.49-7,32.29,32.29,0,0,0,10.16,8.34,20.22,20.22,0,0,0,13.19,2.13,19,19,0,0,0,6.37-2.37l1.43-.93c.47-.31.88-.71,1.33-1.06A24.62,24.62,0,0,0,212.3,243a38.25,38.25,0,0,0,6.52-11.44,92.08,92.08,0,0,0,4.71-21.46c.68-5.81.88-9.84,1.22-11.14s.53,1.07.42,5.82a99.37,99.37,0,0,1-2.51,19.89,58.58,58.58,0,0,1-4.27,12.22A30.19,30.19,0,0,1,210,247.57a21.86,21.86,0,0,1-12.4,4.32,23.32,23.32,0,0,1-11.31-2.79l2,1c.53.27,1,.39,1.43.57s.88.34,1.44.54,1.26.32,2.19.56a32.43,32.43,0,0,1-10-4.25c.79.5,1.64,1.13,2.63,1.68l1.57.79.82.42c.28.12.58.22.87.33l1.81.66c.62.21,1.28.32,1.92.48a22.75,22.75,0,0,0,3.95.54,23.16,23.16,0,0,0,7.25-1c.51-.16,1-.3,1.48-.46l1.26-.55L208,250c.32-.15.59-.32.84-.45-.24.17-.48.36-.73.52l-.77.43-1.57.86c-.54.23-1.1.44-1.66.66a10.86,10.86,0,0,1-1.69.58,21.55,21.55,0,0,0,7.84-3.25,27.76,27.76,0,0,0,6.9-6.79c3.95-5.48,6.3-12.25,7.9-19a123.21,123.21,0,0,0,2.7-20c.18-3.17.27-6.2.29-9s0-5.45-.1-8c.17,3.06.2,5.93.17,8.93s-.13,6-.33,9a120,120,0,0,1-2.54,18.56c-1.42,6.24-3.45,12.64-7.23,18.5a28.89,28.89,0,0,1-7.26,7.81,22.73,22.73,0,0,1-10.18,4.11,23.44,23.44,0,0,1-11-1.1,29.77,29.77,0,0,1-9.49-5.33c-.35-.28-.73-.54-1.06-.84l-1-.93c-.64-.63-1.34-1.22-1.93-1.89a46.62,46.62,0,0,1-3.42-4.16,54.46,54.46,0,0,1-5.45-9.26,73.44,73.44,0,0,1-5.79-20.67l-.31-2.72c-.06-.91-.08-1.82-.13-2.74l-.05-1.37,0-1.37c0-.91,0-1.83.09-2.75a64.7,64.7,0,0,1,1.71-10.87A59.78,59.78,0,0,1,172,167.45a47,47,0,0,1,7.55-8.36,45.65,45.65,0,0,1,9.46-6.2,70.52,70.52,0,0,1,21.36-6.21c1.83-.26,3.65-.48,5.48-.66.91-.08,1.82-.18,2.73-.24l1.37-.1.68-.05.6-.08a19.18,19.18,0,0,0,9-3.17c5.36-3.61,8.86-9.79,10.32-16.25a30.55,30.55,0,0,0,.62-9.85,37.49,37.49,0,0,0-2.33-9.68A32.49,32.49,0,0,0,234,98.09a23.47,23.47,0,0,0-3.31-3.37,15.2,15.2,0,0,0-3.85-2.25,11.22,11.22,0,0,0-4.12-.83,13.64,13.64,0,0,0-4.27.78,17.83,17.83,0,0,0-4,2c-.6.49-1.24.91-1.81,1.42s-1.17,1-1.68,1.62a34,34,0,0,0-8.37,19.08,40.42,40.42,0,0,0,.09,10.49,22.42,22.42,0,0,0,3.41,9.19,17.57,17.57,0,0,0,7.06,6.06,23.77,23.77,0,0,0,2.2.93l2.34.71c.79.19,1.62.3,2.43.46l1.24.22,1.39.2a92.82,92.82,0,0,1,21.88,5.59,69.31,69.31,0,0,1,10.17,5.06c.81.49,1.62,1,2.4,1.52s1.57,1.06,2.33,1.62a52,52,0,0,1,4.49,3.62,46.33,46.33,0,0,1,12.17,19.47,71.61,71.61,0,0,1,3.57,21.78,88.87,88.87,0,0,1-2.27,21.42,89.84,89.84,0,0,1-9.2,22.85c-1.32,2.15-2.56,4.43-4.08,6.53L262,257.49c-.76,1-1.58,2.05-2.37,3.07s-1.55,2-2.39,3l-2.47,2.81c-1.59,1.89-3.31,3.56-4.9,5.18-.71.72-1.39,1.46-2.11,2.16l-2.2,2.05c-1.48,1.36-2.9,2.78-4.46,4l-4.6,3.86-4.75,3.62c-1.59,1.24-3.18,2.35-4.76,3.48s-3.15,2.28-4.76,3.38l-4.8,3.33-4.86,3.27c-13,8.6-26.49,16.72-41.3,22.76-2,.83-4,1.49-6,2.23s-4.11,1.28-6.17,1.89a87.46,87.46,0,0,1-12.88,2.47c-2.19.31-4.43.35-6.66.44l-.84,0-.94,0-1.87-.09c-1.22-.13-2.45-.27-3.65-.49a40.63,40.63,0,0,1-13.47-5.13,31.88,31.88,0,0,1-10.83-10.44c-.34-.58-.72-1.13-1-1.73l-.85-1.86-.41-.93-.31-1-.59-2a20.45,20.45,0,0,1-.36-2.05,18.23,18.23,0,0,1-.24-2.07l0-2.08,0-1c0-.35.08-.69.12-1a21,21,0,0,1,.81-4.07c.19-.66.38-1.33.61-2l.84-1.88a25.75,25.75,0,0,1,2-3.51,39,39,0,0,1,2.43-3.1,36.83,36.83,0,0,1,12.09-8.5,47.83,47.83,0,0,1,13.6-3.76,53.91,53.91,0,0,1,13.91.12,96.61,96.61,0,0,1,13,2.7c4.2,1.12,8.28,2.48,12.33,3.89,8.08,2.87,16,6.12,23.84,9.51s15.7,6.9,23.61,10.37c6.3,2.78,13.65,6.23,15.54,7.37s-1.71.23-17.35-6.47c-13-5.48-26-11.3-39.54-16.39a201.47,201.47,0,0,0-20.86-6.71A99,99,0,0,0,150,274.09a54.63,54.63,0,0,0-11.66-.21,11.2,11.2,0,0,1,1.85-.25c.77-.06,1.68-.17,2.69-.18s2.14,0,3.32.05l3.6.31a120.83,120.83,0,0,1,13.21,2.5,88.1,88.1,0,0,0-15.82-3.09,47.71,47.71,0,0,0-16,1.2,37.11,37.11,0,0,0-3.86,1.14c-.64.22-1.28.43-1.91.67l-1.88.82c-1.26.5-2.45,1.24-3.68,1.87-.6.34-1.18.76-1.78,1.13a20.33,20.33,0,0,0-1.74,1.23l-1.69,1.35c-.56.46-1.06,1-1.6,1.53a30.71,30.71,0,0,0-3,3.43,25.78,25.78,0,0,0-3.93,8.75,24.77,24.77,0,0,1,6-11.35,33.72,33.72,0,0,1,9.7-7.22,47.26,47.26,0,0,1,22.45-4.93,49.57,49.57,0,0,0-14.45,1.81,39.86,39.86,0,0,0-13.69,6.68l-1.56,1.26c-.52.41-1,.93-1.48,1.39a27.35,27.35,0,0,0-2.73,3.12,15.5,15.5,0,0,0-1.19,1.76,17.8,17.8,0,0,0-1.07,1.85,22.55,22.55,0,0,0-1.6,4.06,21.27,21.27,0,0,0-.85,4.33,13.58,13.58,0,0,0-.08,2.21v1.11a5.1,5.1,0,0,0,.08,1.1l.33,2.21a17.92,17.92,0,0,0,.57,2.15,23.84,23.84,0,0,0,1.66,4.09A30.5,30.5,0,0,0,120,323.7a38.08,38.08,0,0,0,15.31,5.06,20.55,20.55,0,0,0,2.08.13,19.77,19.77,0,0,0,2,0l3.82-.16c1.27-.09,2.52-.26,3.78-.39.63-.08,1.26-.13,1.88-.24l1.86-.33A92.64,92.64,0,0,0,165.21,324,183.62,183.62,0,0,0,185,316.2a149.53,149.53,0,0,0,22-12.69A224.51,224.51,0,0,1,173.28,321a108.73,108.73,0,0,1-18.66,5.81,83,83,0,0,1-9.87,1.47c-.83.1-1.67.14-2.52.16l-2.53.07a24.09,24.09,0,0,1-2.66,0c-.45,0-.92,0-1.36-.09l-1.35-.18a38.45,38.45,0,0,1-10.26-3,34.89,34.89,0,0,1-9.06-5.84,26.84,26.84,0,0,1-6.7-9,22.28,22.28,0,0,1-1.81-11.49,22.64,22.64,0,0,1,4.14-10.77,30,30,0,0,1,8-7.54,38.74,38.74,0,0,1,9.55-4.56,48.2,48.2,0,0,1,10.17-2.13l-.27.06c.76-.11,1.53-.14,2.3-.18s1.53-.09,2.29-.1c1.52,0,3.07,0,4.53.18l2.2.2c.73.08,1.44.2,2.16.3s1.44.2,2.14.32l2.1.41a131.46,131.46,0,0,1,16,4.38C182.15,282.89,192,287,202,291.35c-6.25-2.66-12.68-5.28-18.28-7.53,14.86,6,29.1,12.75,43.39,19.05,7.14,3.16,14.29,6.2,21.5,8.94,3.6,1.35,7.22,2.65,10.86,3.75a93.38,93.38,0,0,0,10.94,2.79,110.39,110.39,0,0,1-15.59-4c-5.21-1.7-10.42-3.65-15.63-5.73-10.41-4.16-20.82-8.8-31.39-13.4s-21.26-9.21-32.37-13.14A157.74,157.74,0,0,0,158.36,277a87.24,87.24,0,0,0-8.93-1.6l-2.29-.21a22,22,0,0,0-2.31-.14l-2.34-.05-2.33.12a20.17,20.17,0,0,0-2.33.21c-.77.1-1.55.16-2.32.3a44.86,44.86,0,0,0-4.57,1c-1.52.36-3,.93-4.47,1.44a43.87,43.87,0,0,0-4.29,2,38.15,38.15,0,0,0-4.07,2.52l-1.89,1.51c-.64.49-1.19,1.12-1.78,1.67a24.26,24.26,0,0,0-5.42,8.32,21.16,21.16,0,0,0,2.6,19.35,29.26,29.26,0,0,0,6.84,6.85c.66.44,1.29.94,2,1.33l2.06,1.19a41.65,41.65,0,0,0,4.32,1.91,36.74,36.74,0,0,0,9.18,2.14l2.39.11c.79,0,1.52-.05,2.29-.06,1.5-.06,3-.09,4.5-.3a83.2,83.2,0,0,0,17.37-3.68,163.34,163.34,0,0,0,31.31-14.29c-2.78,1.52-5.75,3-8.77,4.55l-4.67,2.23c-1.56.77-3.2,1.44-4.82,2.17a121.65,121.65,0,0,1-20.6,7,78.32,78.32,0,0,1-10.76,1.76c-1.79.17-3.59.16-5.35.25-.91,0-1.85-.08-2.76-.12s-1.79-.24-2.68-.36a33.91,33.91,0,0,1-17.36-8.65,35.17,35.17,0,0,0,6.76,4.71,40,40,0,0,0,7.63,3,35.91,35.91,0,0,0,8.17,1.12l4-.14c1.34,0,2.64-.25,4-.37.65-.08,1.32-.13,2-.24l1.95-.34c1.3-.24,2.62-.42,3.89-.75l3.85-.92,3.79-1.11a128.93,128.93,0,0,0,14.7-5.6,229,229,0,0,0,27.63-14.89q6.69-4.14,13.21-8.55c2.18-1.47,4.37-2.94,6.51-4.46s4.33-3,6.46-4.61c-2.49,2-5,3.72-7.44,5.55,2.71-1.84,5.44-3.66,8.14-5.7,1.35-1,2.73-2,4-3l3.94-3.23c1.34-1.06,2.59-2.22,3.85-3.38s2.56-2.28,3.75-3.51l3.61-3.7c1.21-1.22,2.29-2.58,3.44-3.86a104.58,104.58,0,0,0,11.94-16.87,95.11,95.11,0,0,0,8.08-18.74c.34-1.16.68-2.31,1-3.46s.53-2.35.81-3.53l-.81,3.51c-.34,1.16-.69,2.32-1,3.48a90.74,90.74,0,0,1-7.19,17c-.69,1.36-1.55,2.63-2.32,4l-1.18,1.95c-.41.64-.85,1.26-1.28,1.88-.87,1.25-1.71,2.51-2.6,3.74l-2.79,3.57c-.91,1.21-1.91,2.33-2.91,3.45s-2,2.27-3,3.37l-3.15,3.2-1.57,1.59L244.29,273l-3.3,3c-1.11,1-2.28,1.9-3.42,2.85s-2.27,1.91-3.45,2.8l-3.55,2.64c2.14-1.65,4.34-3.29,6.46-5.15l3.28-2.75,3.23-3c2.23-2,4.33-4.22,6.57-6.49,1.13-1.12,2.15-2.4,3.26-3.62l1.66-1.89c.56-.64,1.06-1.33,1.6-2-1.16,1.46-2.58,3-4.08,4.61-.76.81-1.5,1.69-2.34,2.52l-2.58,2.56c-1.72,1.78-3.67,3.47-5.62,5.23s-4,3.41-6.11,5.11c-1.33,1.15-2.74,2.19-4.15,3.24l-4.21,3.13c-2.85,2-5.66,4-8.55,5.95-5.7,3.93-11.54,7.66-17.42,11.27,9.11-5.56,17.82-11.57,26.16-17.63a140.69,140.69,0,0,0,22.49-20.14A155.35,155.35,0,0,1,234,280c-5.85,4.45-11.82,8.65-17.92,12.72-12.17,8.15-24.75,15.82-38,21.92a227.62,227.62,0,0,0,21-11.38q10.2-6.19,20-13c2.77-1.86,5.49-3.79,8.23-5.7l4-3,2-1.5,2-1.6,3.89-3.2,3.74-3.4,1.87-1.71,1.77-1.8c1.18-1.22,2.4-2.38,3.53-3.64a111.3,111.3,0,0,0,12.35-16.17c.86-1.47,1.79-2.9,2.59-4.41l2.36-4.56,2.07-4.7c.66-1.59,1.2-3.22,1.8-4.83-.34,1-.69,2-1,3,.69-2,1.47-3.91,2-5.93a79.39,79.39,0,0,0,3.16-15.84,76,76,0,0,0,0-16.24c-1.08-9.68-4.32-19.19-10.43-26.63a36.09,36.09,0,0,0-3.28-3.59c1.15,1,2,1.85,2,1.81s-.14-.23-.57-.72l-.86-.94c-.37-.37-.84-.8-1.38-1.31a60.82,60.82,0,0,0-16.21-10.35,84,84,0,0,0-19.09-5.65c-1.65-.33-3.35-.54-5-.82a33.21,33.21,0,0,1-4.76-1.1l-1.17-.37-.58-.19-.55-.25-2.21-1-2.05-1.32c-.68-.45-1.25-1-1.88-1.54a20.21,20.21,0,0,1-5.24-8.22,30.67,30.67,0,0,1-1.56-10,46.67,46.67,0,0,1,1.68-12.32,41.66,41.66,0,0,1,2.6-6.72,34,34,0,0,1,4.2-6.34c.48-.51.91-1,1.3-1.35l1.09-1c.61-.63,1.19-1,1.67-1.46a18.74,18.74,0,0,1,5.88-2.93,13.08,13.08,0,0,1,7.81.27,18.23,18.23,0,0,1,6.66,4.4,17.68,17.68,0,0,0-6.62-4.43,13,13,0,0,0-7.85-.24,19.18,19.18,0,0,0-5.44,2.55,14.66,14.66,0,0,1,5.17-2.7,18.49,18.49,0,0,0-6.27,3.21,25.42,25.42,0,0,0-5.06,5.14,36,36,0,0,0-6.1,13.26,41.15,41.15,0,0,0-1.09,7.34,37.63,37.63,0,0,0,.2,7.43,23.42,23.42,0,0,0,5.75,13.32l.61.68.7.6c.47.39.92.81,1.41,1.18l1.55,1,.78.5.84.39,1.69.79c.56.24,1.17.39,1.76.59s1.18.4,1.79.56l1.84.36c.62.12,1.22.26,1.85.36l1.92.31c1.28.18,2.55.45,3.82.68,2.54.52,5.08,1.09,7.58,1.82a66.75,66.75,0,0,1,27.38,14.74,51.65,51.65,0,0,0-6-4.54,42.11,42.11,0,0,1,9.32,8.13,47.68,47.68,0,0,1,8.64,18.33,70.28,70.28,0,0,1,1.88,20.17,63.66,63.66,0,0,0-.57-11c.25,2.4.33,4.8.35,7.2s-.06,4.81-.35,7.2a83.55,83.55,0,0,1-2.46,14.2,90.89,90.89,0,0,1-11.82,26.22A118.53,118.53,0,0,1,242,272.53a198.74,198.74,0,0,1-22.8,17.71c-7.45,5.09-15,10-22.8,14.46a196.23,196.23,0,0,1-24,12.05c-2.09.81-4.15,1.7-6.28,2.39l-3.18,1.1-3.22.94c-2.13.68-4.34,1.1-6.51,1.63-1.1.23-2.21.39-3.31.59l-1.66.28c-.55.08-1.11.12-1.67.19-1.11.11-2.22.24-3.34.33l-3.35.12c-1.12.07-2.25,0-3.37-.08-.56-.05-1.12-.15-1.68-.22a13.07,13.07,0,0,1-1.66-.28,33.44,33.44,0,0,1-12.34-5.16l.73.54.78.47c.52.31,1,.63,1.57.93a35.71,35.71,0,0,0,3.31,1.56,31.81,31.81,0,0,0,14.56,2.42c.62,0,1.25,0,1.87-.06l1.86-.18c1.25-.14,2.51-.2,3.74-.45,10-1.47,19.65-4.94,29-9.17A125.51,125.51,0,0,1,159,321.92,75.85,75.85,0,0,1,138.66,325a33.68,33.68,0,0,1-19.59-6.66,25.06,25.06,0,0,1-7-7.87,18.71,18.71,0,0,1-2.38-10.37,19.37,19.37,0,0,1,3.56-10,26.57,26.57,0,0,1,7.71-7.16,41.22,41.22,0,0,1,19.77-6,49.92,49.92,0,0,1,5.19,0c1.72.17,3.44.28,5.13.58a92,92,0,0,1,10,2.12,188.39,188.39,0,0,1,19.34,6.49c-4.65-1.55-10.2-3.32-15.39-4.62A77.6,77.6,0,0,0,152,279.22c.17.13,4.5,1,7.51,1.89s4.72,1.41-.17.2a77.09,77.09,0,0,0-13-2,44.07,44.07,0,0,0-11.94.94c-7.46,1.64-13.89,5.17-17.8,9.89a17.54,17.54,0,0,0-3.77,7.57,16.38,16.38,0,0,0,.32,7.39c.18.54.37,1.08.55,1.61s.5,1,.74,1.47a8.57,8.57,0,0,0,.84,1.36c.32.42.57.86.91,1.23a18.37,18.37,0,0,0,2,2.08l1,.88,1.1.74c.59.31-.88-.92-2.55-3.21a15.39,15.39,0,0,1-1.21-1.92l-.57-1.08c-.19-.36-.29-.77-.45-1.15a14.61,14.61,0,0,1-.93-4.89,13.49,13.49,0,0,1,2.19-7.24c.44-.61.76-.88.75-.74s-.34.67-.76,1.82a12.92,12.92,0,0,0-.85,7c.06.33.08.67.16,1l.33,1a11.93,11.93,0,0,0,.86,2.05,16.84,16.84,0,0,0,3,4,26,26,0,0,0,10.25,6.14,29.22,29.22,0,0,0,6.35,1.29l1.6.06c.55,0,1.2,0,1.8-.06,1.22-.07,2.44-.05,3.68-.23a78.47,78.47,0,0,0,17.75-3.83c.76-.24,2-.77,3.55-1.42a187.24,187.24,0,0,0,28.85-14.26c8.48-5,15.63-9.75,20.69-13.18,1.89-1.26,3.75-2.55,5.6-3.83l2.78-1.93c.92-.64,1.78-1.3,2.67-1.95,1.88-1.33,3.57-2.37,4.82-3.25l3.1-2.76,1.56-1.37,1.5-1.44,3.24-2.94c1.06-1,2-2.06,3.08-3.08,2.1-2,3.93-4.24,5.85-6.39.93-1.09,1.78-2.24,2.67-3.36l1.33-1.69c.42-.57.81-1.17,1.22-1.75.8-1.18,1.64-2.33,2.41-3.52l2.19-3.64a84.37,84.37,0,0,0,7.8-17c-.14.1-.54,1-.31-.15a77.76,77.76,0,0,0,3.38-20.67,60.39,60.39,0,0,0-2.58-20.34,44.77,44.77,0,0,0-6.28-13.26l-.94-1-1.06-1a12.89,12.89,0,0,0-1.16-1c-.42-.35-.78-.7-1.28-1.07a62.7,62.7,0,0,0-6.5-4.5,69.69,69.69,0,0,0-17.43-7.37,98.34,98.34,0,0,0-10.27-2.25l-1.33-.22c-.44-.07-.85-.12-1.4-.24L216.4,152c-1-.2-2.07-.62-3.09-.92-.51-.18-1-.31-1.53-.54l-1.5-.69a25.7,25.7,0,0,1-10.13-8.29,29.43,29.43,0,0,1-4.75-11l0,.05a42.33,42.33,0,0,1-.78-10.94,49.45,49.45,0,0,1,1.74-10.71,42.12,42.12,0,0,1,4.36-10.16A34.72,34.72,0,0,1,208.05,90a25.63,25.63,0,0,1,6.56-3.71,27.16,27.16,0,0,1,2.88-1.11c1-.23,2-.49,2.94-.61s1.83-.19,2.63-.17l2.08.12a19.86,19.86,0,0,1,9,3.87,27.33,27.33,0,0,1,5.92,6.07,36.51,36.51,0,0,1,3.88,6.71,45.09,45.09,0,0,1,2.48,7,36.81,36.81,0,0,1,1.87,8.85,38.62,38.62,0,0,1-1.14,11.53,36.81,36.81,0,0,1-4.37,10.4,29.12,29.12,0,0,1-9.49,9.64,26.39,26.39,0,0,1-6.44,2.81,21.52,21.52,0,0,1-3.44.74c-1.12.13-2.43.31-3.28.34a96,96,0,0,0-18.63,2.74,47.21,47.21,0,0,0-16.21,7.45,37,37,0,0,0-6.34,6.05c-1,1.11-1.83,2.34-2.72,3.54s-1.65,2.5-2.36,3.83-1.38,2.67-2.06,4-1.22,2.75-1.69,4.18a54.56,54.56,0,0,0-2.36,8.7,2.3,2.3,0,0,1-.56,1.08c-.06.46-.12.95-.17,1.46s-.08,1-.12,1.57c-.09,1.07-.2,2.17-.19,3.28a43.49,43.49,0,0,0,.19,6c-.14-.63-.17-1-.25-.93.11,1.38.33,2.6.45,3.73s.41,2.16.57,3.11.3,1.84.51,2.67.38,1.61.56,2.38.32,1.56.57,2.33l.74,2.43.4,1.32c.16.46.35.91.54,1.39.4,1,.77,2,1.3,3.16s1,1.95,1.57,2.89,1.2,1.79,1.78,2.72a31.68,31.68,0,0,0,1.84,2.67,32.22,32.22,0,0,0,2.51,3.3,16.77,16.77,0,0,0,1.43,1.49,20,20,0,0,0,1.49,1.43,27.62,27.62,0,0,0,6.94,4.37,19.58,19.58,0,0,0,8,1.43,18.88,18.88,0,0,0,4.08-.67l2-.7,1.91-.95a20.66,20.66,0,0,0,6.45-5.9,36.54,36.54,0,0,0,4.4-8.16,76.12,76.12,0,0,0,4.44-18.75c.6-5.13.85-8.72,1.07-11.91S222.49,195.21,222.45,191.6Z"/><path class="cls-3" d="M218.84,152.09l-2.57-.54c-.86-.2-1.71-.53-2.56-.8a16.2,16.2,0,0,1-2.52-1c-.83-.39-1.66-.77-2.47-1.2a25.58,25.58,0,0,1-8.21-7.49,28,28,0,0,1-4.28-10,41.22,41.22,0,0,1-.85-10.26,39.91,39.91,0,0,0,1.11,10.74,27.28,27.28,0,0,0,4.57,9.85,26.76,26.76,0,0,0,8.11,7.09,32.46,32.46,0,0,0,4.77,2.12c.82.27,1.63.63,2.44.82Z"/><path class="cls-3" d="M121.25,290.74a32.11,32.11,0,0,1,12.39-5.64,31.53,31.53,0,0,0-9.12,3.88,19.16,19.16,0,0,0-6.28,6.3,11.93,11.93,0,0,0-1.45,7.68,13.35,13.35,0,0,0,3.7,7.3A26.25,26.25,0,0,0,137.65,318c.4,0,.77.05,1.19.06l1.35-.06,2.71-.1,2.72-.29,1.36-.15c.46-.06.91-.15,1.37-.23l2.73-.48c.92-.16,1.82-.42,2.73-.62s1.83-.4,2.74-.67l2.72-.81,0,0a70.38,70.38,0,0,1-19,3.38,19,19,0,0,1-2.38,0l-1.09-.05-1.11-.15c-.37-.06-.74-.08-1.11-.16l-1.12-.25a19,19,0,0,1-2.21-.61,27.29,27.29,0,0,1-8-4.09,18,18,0,0,1-5.25-5.91,12.17,12.17,0,0,1-1.45-6.33,13.57,13.57,0,0,1,1.59-5.59l.68-1.19c.28-.37.55-.73.8-1.09l.38-.52.44-.47Z"/><path class="cls-3" d="M249.31,162.22l-1.46-.74-.09,0C248.21,161.64,248.73,161.91,249.31,162.22Z"/><path class="cls-3" d="M175.35,285.15c1,.34,1.91.69,2.87,1.06a163.59,163.59,0,0,0-22.33-6.64A135.09,135.09,0,0,1,175.35,285.15Z"/><path class="cls-3" d="M252.44,317.54c7.52,2.54,15.21,4.83,23.18,5.52,2,.16,4,.21,6,.23s4,0,6-.05a98.37,98.37,0,0,0,11.88-1.07A51.91,51.91,0,0,0,314.07,318a29.46,29.46,0,0,0,6.4-4.11A22.25,22.25,0,0,0,325.3,308a23.43,23.43,0,0,0,2.6-7.07,24.21,24.21,0,0,0,.36-7.5,19.29,19.29,0,0,0-2.24-7.14,21.66,21.66,0,0,0-4.68-5.78,22.09,22.09,0,0,1,4.49,5.23,19.51,19.51,0,0,1,2.43,6.47,22.56,22.56,0,0,1,.18,6.86,25.52,25.52,0,0,1-1.69,6.64,23,23,0,0,1-8.69,10.4,39.48,39.48,0,0,1-12.49,5.21c-8.78,2.13-17.85,2.4-26.81,2.09a64.36,64.36,0,0,1-13.38-2C261,320.39,256.7,319,252.44,317.54Z"/><path class="cls-3" d="M173.74,290.71c6,2.28,12,4.88,18,7.57-6.06-2.6-12.1-5.07-18.14-7.28C174.75,291.32,173.83,290.85,173.74,290.71Z"/><path class="cls-3" d="M114.85,290.19c.51-.6,1-1.25,1.51-1.8s1.11-1.12,1.68-1.65a20.49,20.49,0,0,0-6.17,10A19.18,19.18,0,0,1,114.85,290.19Z"/><path class="cls-3" d="M238.24,318.74q-6.88-2.83-13.58-5.8c2.69,1.1,5.38,2.16,8.1,3.18C234.18,316.86,236,317.77,238.24,318.74Z"/><path class="cls-3" d="M317,323.39a33.86,33.86,0,0,0,5.17-3.1,29.44,29.44,0,0,0,4.64-4.1,30.66,30.66,0,0,0,2-2.41,29.33,29.33,0,0,0,1.69-2.63,27.37,27.37,0,0,0,2.43-5.58,28,28,0,0,1-8,12.64,37.7,37.7,0,0,1-12.19,7.19C314.64,324.6,316.1,323.81,317,323.39Z"/><path class="cls-3" d="M408.57,321.35,406.62,325c-.65,1.22-1.4,2.38-2.1,3.58l-2.13,3.56c-.7,1.18-1.41,2.37-2.19,3.51l-4.6,6.91-4.9,6.68a223.68,223.68,0,0,1-21.83,24.58l-5.94,5.56-6.14,5.25-1.53,1.31-1.59,1.23-3.16,2.46-3.15,2.44-3.25,2.3-3.23,2.28-1.61,1.13-1.65,1.06L331,403.05c-4.49,2.59-8.88,5.24-13.42,7.48,1.79-.95,3.61-1.83,5.37-2.83l5.25-3,2.62-1.52,2.56-1.64,5.1-3.27c1.7-1.1,3.32-2.32,5-3.47s3.34-2.3,4.92-3.56l4.78-3.72c.79-.63,1.6-1.23,2.37-1.88l2.31-2a208.84,208.84,0,0,1-28.11,20l-7.36,4.15-7.64,3.86c-1.28.67-2.61,1.24-3.95,1.83l-4,1.79c-2.69,1.25-5.54,2.27-8.41,3.39,1.68-.81,3.89-1.71,6.26-2.77l7.34-3.44c2.44-1.15,4.69-2.43,6.59-3.44a30.2,30.2,0,0,0,4.14-2.52,222.58,222.58,0,0,0,66.87-56.72,217.64,217.64,0,0,0,38.94-77.62c-.59,2.81-1.18,5.48-1.81,8s-1.46,4.91-2.19,7.2-1.58,4.45-2.4,6.54-1.61,4.1-2.5,6-1.79,3.77-2.67,5.6c-.44.91-.87,1.82-1.31,2.72l-1.41,2.63-2.76,5.26C410.55,317.86,409.52,319.56,408.57,321.35Z"/><path class="cls-3" d="M234.73,432.48l8.73-.85c1.44-.12,2.87-.34,4.28-.55l4.24-.61-4.46.68-2.21.34c-.74.09-1.47.15-2.19.23C240.21,432,237.39,432.27,234.73,432.48Z"/><path class="cls-3" d="M272.49,14.94c-3.21-.78-6.45-1.43-9.65-2.15-1.59-.4-3.22-.6-4.82-.89l-4.77-.83,4.8.77c1.6.29,3.23.49,4.82.88C266.06,13.46,269.29,14.14,272.49,14.94Z"/><path class="cls-3" d="M429.59,247.66c.17-1.74.33-3.49.5-5.24s.38-3.52.44-5.31a217.54,217.54,0,0,0,0-40.35,214.11,214.11,0,0,0-7.78-40.26,220.3,220.3,0,0,1,8.5,45.21A194.21,194.21,0,0,1,429.59,247.66Z"/><path class="cls-3" d="M422.47,275.65a198.7,198.7,0,0,1-14.89,37.84A195.69,195.69,0,0,1,386,346.62,202.68,202.68,0,0,0,422.47,275.65Z"/><path class="cls-3" d="M87.48,63.48c.15,0-.16.41-.68.94s-1.06,1-1.46,1.46A208,208,0,0,0,63,88.13c1.67-2,3.1-4,4.84-6,2-2.14,3.68-3.74,5.14-5.21s2.76-2.72,4.16-3.93,2.77-2.51,4.39-4c.8-.79,1.7-1.59,2.7-2.47Z"/><path class="cls-3" d="M279.57,16.91l.68.13c1.1.28,2.17.61,3.23,1l3.18,1,.75.29-3.9-1.24-1.95-.63Z"/><path class="cls-3" d="M98,55.13a2.09,2.09,0,0,0,1.45-.29c-4.81,3.48-9.53,7.08-14,11,.5-.5,1-1,1.36-1.38C89.62,61.64,94.69,58.06,98,55.13Z"/><path class="cls-3" d="M224.62,16.86c1.89,0,3.68,0,5.21-.1s2.82-.05,3.71,0A210.49,210.49,0,0,1,264.15,22c1.75.31,5.45,1,8.92,1.88,2,.76,4.14,1.49,6.4,2.32a204.43,204.43,0,0,0-76.89-8.75L208,17c1.8-.14,3.63-.12,5.46-.18L219,16.7Z"/><path class="cls-3" d="M189.94,423.79c-4.32-.48-8.67-1.37-13.09-2.19-2.21-.43-4.39-1-6.61-1.52l-3.33-.8c-1.1-.29-2.2-.63-3.31-.95A199.45,199.45,0,0,1,137.42,409l-6.36-2.85L124.84,403c-2.08-1-4.06-2.16-6.08-3.25s-4-2.16-6-3.38L107,392.87l-5.59-3.64c-.91-.61-1.85-1.19-2.75-1.81L96,385.53c-1.77-1.26-3.56-2.45-5.26-3.72a210.57,210.57,0,0,0,26.09,18l3.53,2c1.18.68,2.35,1.35,3.56,1.94,2.4,1.23,4.77,2.48,7.14,3.66l7.09,3.28c2.33,1.07,4.68,1.94,6.93,2.9,1.13.45,2.24.94,3.35,1.36l3.3,1.19c2.16.76,4.22,1.58,6.24,2.23l5.76,1.84c.91.29,1.78.59,2.64.85l2.5.7,4.41,1.29c1.33.41,2.52.78,3.57,1.05a25.19,25.19,0,0,1,4.24,1.44c1.38.72-1.33.51-6.67-.45-2.64-.59-5.95-1.29-9.7-2.27l-5.89-1.71c-1-.32-2.1-.59-3.16-1l-3.24-1.12c-17.71-5.77-38.34-16.86-51.32-25.89l3.36,2.52c.85.61,1.72,1.18,3.45,2.37-3.51-2.29-6.79-4.91-10-6.8,1.69,1.25,3.77,2.79,6,4.43s4.77,3.2,7.14,4.8c1.17.82,2.38,1.54,3.51,2.23l3.2,2,4.55,2.9c-2.33-.93-4.55-2.1-6.82-3.16,2.26,1.46,4.78,3.09,7.62,4.6l4.37,2.4c1.49.85,3.1,1.55,4.71,2.35l4.95,2.38,5.21,2.21c3.5,1.56,7.18,2.84,10.84,4.19,1.82.71,3.68,1.28,5.53,1.86l5.53,1.75c3.69,1,7.32,2,10.82,2.91s6.9,1.61,10.09,2.25,6.17,1.17,8.85,1.72a230.22,230.22,0,0,1-80.75-28.93,221.91,221.91,0,0,1-69.45-64.5c-1.23-1.65-2.29-3.41-3.42-5.12s-2.28-3.44-3.33-5.21c-2.06-3.57-4.28-7.07-6.14-10.77-1-1.84-2-3.66-2.89-5.51l-2.67-5.62-1.33-2.82-1.21-2.88L20.42,296A219.7,219.7,0,0,1,7.64,247.66,222.07,222.07,0,0,1,6.34,198a208.35,208.35,0,0,1,9.9-47.7c.72-2.12,1.36-4.27,2.13-6.36s1.59-4.17,2.38-6.24c.41-1,.78-2.08,1.21-3.11l1.33-3c.89-2,1.77-4.05,2.66-6.07a227.72,227.72,0,0,1,12.51-23,213,213,0,0,1,31.76-40,220.42,220.42,0,0,1,82.25-51.94c1.41-.54,3.1-1,5-1.6L163.74,7c2.28-.63,4.75-1.14,7.32-1.75L175,4.36l4.11-.74,4.22-.75c1.42-.25,2.85-.51,4.3-.66l8.67-1.07c2.89-.26,5.75-.42,8.53-.63s5.49-.26,8.07-.31c2.28-.06,4.57-.18,6.85-.2l6.85.11L230,.17c1.14,0,2.28.14,3.42.21l6.84.45c2.28.15,4.54.5,6.81.74l3.4.4c1.14.12,2.27.26,3.4.47,4.49.79,9,1.39,13.47,2.46l6.69,1.47,6.61,1.79,3.3.89c1.09.32,2.17.69,3.26,1l6.5,2.1c2.16.73,4.28,1.58,6.41,2.36s4.29,1.55,6.36,2.5l6.26,2.69,1.57.68,1.53.74,3.06,1.49A213,213,0,0,1,366.6,55.06c1.79,1.61,3.5,3.3,5.25,4.95l2.61,2.49c.85.84,1.67,1.73,2.5,2.59l5,5.24,4.73,5.46L389,78.54l2.24,2.84c1.47,1.91,3,3.79,4.44,5.73,2.76,4,5.68,7.83,8.2,12A215.66,215.66,0,0,1,418,124.66q1.5,3.36,3,6.72c.52,1.11,1,2.26,1.41,3.41l1.34,3.44c1.89,4.56,3.34,9.3,4.94,14,.74,2.37,1.37,4.78,2.06,7.18l1,3.61c.31,1.2.57,2.43.85,3.65l1.68,7.34q.68,3.72,1.33,7.45c.21,1.25.46,2.49.65,3.74l.48,3.78c.31,2.52.68,5,.93,7.58.36,5.1.91,10.21.95,15.38.06,2.05.09,4.2.09,6.32s-.22,4.18-.35,6.08-.26,3.61-.44,5a31.35,31.35,0,0,1-.6,3.14c-.36,1.3-.6.81-.61-2.5,0-1.66-.11-4-.12-7.24,0-1.6,0-3.41,0-5.45s-.19-4.31-.29-6.82a225,225,0,0,0-27.1-95.88,36.61,36.61,0,0,1,2.5,4.19l1.67,3.12c.58,1.12,1.24,2.28,1.78,3.53l3.43,7.4c1.09,2.38,2,4.63,2.77,6.32-1.1-2.91-2.14-5.77-3.39-8.49l-1.78-4.07c-.59-1.35-1.16-2.7-1.83-4-1.3-2.6-2.59-5.16-3.86-7.71s-2.79-5-4.18-7.42a212.42,212.42,0,0,0-20-28.42,217.53,217.53,0,0,1,26.94,40.67l-1.76-3.4-.88-1.71-1-1.68-3.89-6.74c-1.34-2.24-2.81-4.41-4.22-6.64-.73-1.1-1.42-2.23-2.17-3.32L397.08,93l-2.32-3.26-1.17-1.63-1.24-1.58-5-6.35c-3.54-4.1-7-8.29-10.9-12.18a206.24,206.24,0,0,0-24.68-22.08,216.36,216.36,0,0,0-28-18.15c-1.77-1-3.58-1.89-5.32-2.86L313.17,22l-5.41-2.71c-1.83-.9-3.66-1.89-5.63-2.69a128.47,128.47,0,0,0-12.63-5L286,10.5l-1.83-.58-1.9-.49q-3.83-1-8.05-1.91a217.82,217.82,0,0,1,78,39.56,223.36,223.36,0,0,1,57,67.52c-.07-.09-.14-.19-.19-.24a211.33,211.33,0,0,1,15.34,35.05,219.83,219.83,0,0,1,8.83,36.52c-.68-3.91-1.45-7.84-2.18-11.66s-1.73-7.45-2.53-10.86A230.49,230.49,0,0,1,435,218.23l-.2,6.88-.1,3.43c-.06,1.15-.17,2.29-.25,3.43l-.52,6.85c-.24,2.27-.56,4.54-.83,6.81l-.43,3.4c-.13,1.14-.37,2.26-.55,3.39l-1.18,6.76c-.44,2.24-1,4.46-1.46,6.7l-.75,3.34c-.24,1.12-.59,2.21-.88,3.32a225.62,225.62,0,0,0,4.6-78.45,215.48,215.48,0,0,0-75-139.77,210.48,210.48,0,0,0-68.89-38.75c13.64,5.17,29.22,12,43.23,20.79s26.61,18.8,35.3,28a212.58,212.58,0,0,0-27.56-22.48,219.82,219.82,0,0,0-31.06-17.65A213.06,213.06,0,0,0,238.91,5.36c1.81.07,3.58.27,5.35.46l5.29.53a195,195,0,0,0-46.3-1.87,222.06,222.06,0,0,0-45.6,8.43l-2,.54c-.65.19-1.29.41-1.93.62l-3.87,1.28,3.85-1.27c.65-.21,1.29-.44,1.94-.63l2-.54a215,215,0,0,1,81.26-7.55,245.11,245.11,0,0,0-41.08.24,300.14,300.14,0,0,1,32.84,0,212.87,212.87,0,0,1,47.06,8,199.55,199.55,0,0,0-35.6-6.72,217,217,0,0,0-34.41-.37,221.61,221.61,0,0,1,49.87,3.6c4.14.67,8.21,1.73,12.3,2.68,2.05.44,4.05,1.06,6.07,1.64l6,1.74,5.94,2c2,.69,4,1.31,5.88,2.13,3.87,1.57,7.77,3,11.5,4.83A209.33,209.33,0,0,0,253.09,9.81a210.52,210.52,0,0,0-91.57,4.79l3.43-1-6.83,2A212,212,0,0,0,124,29.07L120.34,31c-1.22.63-2.43,1.27-3.6,2l-7,4.19c-4.53,3-9,6-13.27,9.28-1.48,1.08-3,2.08-4.41,3.2a23.85,23.85,0,0,0,2.27-2s-.28.11-.9.51-1.53,1.06-2.86,2.07A192.38,192.38,0,0,0,58.34,80.6a235.28,235.28,0,0,0-26.86,39.1c-1,1.88-2.11,3.94-3.26,6.15S26.09,130.5,25,133s-2.16,5.21-3.24,8c-.53,1.39-1.06,2.8-1.61,4.22s-1,2.92-1.44,4.4a39,39,0,0,0-2,6.44l-2.12,7.84c-.49,1.58-.79,3.22-1.18,4.83s-.73,3.23-1.09,4.84c-.17.8-.38,1.6-.52,2.42l-.4,2.43c-.27,1.62-.53,3.23-.79,4.84q.42-2.38.84-4.8c.27-1.62.54-3.24.93-4.85s.71-3.23,1.07-4.85.67-3.26,1.14-4.86c.66-2.4,1.33-4.78,2-7.14a67,67,0,0,1-1.61,7c.79-2.74,1.57-5.49,2.36-8.24s1.85-5.42,2.78-8.14c.24-.67.45-1.36.71-2l.8-2,1.6-4c.55-1.33,1-2.7,1.63-4l1.8-4a210.93,210.93,0,0,1,17-30.47A217.73,217.73,0,0,1,92,49.63l-6.46,5.6c3.59-3,7.07-6.07,10.87-8.8a217.94,217.94,0,0,1,39.9-22.74l-5.92,2.9L127.68,28l-2.5,1.45a218,218,0,0,1,30.33-12.28,229.23,229.23,0,0,1,31.94-7.47,233.49,233.49,0,0,1,32.79-2.45,224.6,224.6,0,0,1,32.85,2.59l7.6,1.41c2.53.49,5,1.16,7.53,1.73l3.75.89,3.7,1.08c2.46.74,4.95,1.38,7.38,2.2a224.24,224.24,0,0,1,28.41,11.57,212.66,212.66,0,0,1,50.08,34.57,200.2,200.2,0,0,0-56.23-38.08,208.23,208.23,0,0,1,74.4,55.24A205.46,205.46,0,0,1,406,118.93a208.29,208.29,0,0,1,16.9,43.32c-.45-1.32-.93-2.71-1.42-4.13s-1-2.89-1.57-4.34c-1.16-2.9-2.26-5.88-3.47-8.68s-2.48-5.44-3.59-7.77-2.31-4.28-3.21-5.77a17,17,0,0,0,1.06,3c.32.81.68,1.71,1.05,2.61l1,2.69c1.19,3.36,1.85,5.31-.37,0A226.33,226.33,0,0,0,399,114c-2.19-3.9-4.66-7.4-6.87-10.84-.54-.86-1.13-1.68-1.72-2.48l-1.74-2.4c-1.15-1.57-2.25-3.12-3.37-4.59-2.34-2.87-4.5-5.64-6.67-8.13s-4.33-4.76-6.35-6.86-4.1-3.88-6-5.56a36.1,36.1,0,0,0-2.81-2.31c-.92-.71-1.81-1.37-2.68-2-.69-.44.8,1.34,3.22,4.08l4,4.88,2.22,2.7c.73.92,1.42,1.89,2.11,2.81,1.37,1.87,2.68,3.66,3.82,5.2s1.91,3,2.47,3.9c1.11,1.87,1,2.08-1.39-.75-1.88-2.44-4.44-5.11-7.18-8.24L369,82.25l-1.13-1.17-2.36-2.42c-1.62-1.64-3.25-3.42-5.12-5.08a198.9,198.9,0,0,0-25.77-21,191.12,191.12,0,0,0-18-11.35,26.49,26.49,0,0,0-4-1.84,210,210,0,0,0-33.55-13.84l-7.65-2.17-1.81-.52-1.79-.42-3.45-.81c-4.45-1.14-8.47-1.77-11.79-2.42-2.46-.52-5-.81-7.42-1.16l-3.7-.51c-.62-.08-1.23-.18-1.85-.24l-1.86-.16c-2.59-.33-4.8-.67-6.52-1-1.57-.07-3.15,0-4.72,0l-4.73,0a200.93,200.93,0,0,0-39.47,3.06c-3.62.46-7.18,1.24-10.75,1.95l-2.67.53c-.89.18-1.76.44-2.64.65L161,23.73c.19.11,1.36,0,.08.5-2,.51-3.93,1.2-5.87,1.84L149.42,28l-5.72,2.23-2.85,1.12c-.95.36-1.87.82-2.8,1.23l-5.59,2.5c-.94.4-1.84.87-2.75,1.33L127,37.82c-1.8,1-3.66,1.79-5.42,2.82l-5.3,3-2.17,1.16L112,46.05l-4,2.35c-2.66,1.45-5,3.07-7.37,4.45-.86.71-1.79,1.47-2.8,2.26l-3.11,2.65c-2.18,1.87-4.67,3.82-7.15,6.13l-3.91,3.48c-1.36,1.17-2.63,2.51-4,3.79s-2.75,2.62-4.13,4l-4.08,4.28c-.7.72-1.39,1.45-2.09,2.18s-1.33,1.51-2,2.27l-4,4.61C62,90,60.8,91.69,59.51,93.27l-1.9,2.4-1,1.2-.88,1.23c-2.33,3.31-4.77,6.49-6.78,9.79-1,1.63-2.07,3.24-3.08,4.8s-1.83,3.2-2.71,4.74h.06A204.1,204.1,0,0,0,25.8,156.87c-.88,2.24-1.57,4.43-2.35,6.44-.37,1.77-.89,3.55-1.19,5.14s-.6,3-.75,3.85c-.35,1.41-.7,2.79-1,4.15s-.56,2.72-.85,4c-.51,2.66-1.1,5.22-1.52,7.76s-.78,5-1.16,7.5c-.09.61-.2,1.23-.28,1.84l-.19,1.85-.39,3.68c0,.9,0,2.2,0,3.75s.13,3.35.07,5.26-.12,3.8-.17,5.68.07,3.74.1,5.59.05,3.69.18,5.51.28,3.63.41,5.43l.2,3.17.36,3.17c.23,2.11.47,4.23.7,6.35s.68,4.23,1,6.35l.52,3.19.65,3.17A207.63,207.63,0,0,0,33,301.1a210.93,210.93,0,0,0,21.06,37.34,2.24,2.24,0,0,1,.31,1.46c1.4,1.73,3.11,3.77,4.7,5.84a71.48,71.48,0,0,0,4.61,5.47c-.55-.53-.93-.84-.94-.67,4.33,4.92,7.07,7.67,9.51,10.48,1.24,1.39,2.53,2.67,4,4.19s3.06,3.24,5.26,5.2c1,.88,2,1.69,3,2.5L86,374.12l1.54,1.18,3,2.51c2.39,2.34,5,4.4,7.63,6.5l2,1.56,2.07,1.47,4.2,2.92c1.39,1,2.89,1.86,4.36,2.78l4.5,2.76c1.54.89,3.13,1.72,4.71,2.61s3.17,1.81,4.85,2.62a210.55,210.55,0,0,0,41.3,16.75l7.4,2c1.07.29,2.07.6,3,.84l2.75.69,5.14,1.32C186.12,423.09,187.92,423.38,189.94,423.79Z"/><path class="cls-3" d="M60.52,91.08A205.36,205.36,0,0,0,37.61,125.2C44.39,112.11,51.5,100.83,60.52,91.08Z"/><path class="cls-3" d="M382.88,100.09c2.85,4.56,5.94,9.78,9.16,15.48a201.41,201.41,0,0,0-73.4-72.16v-.07a194.49,194.49,0,0,1,37.78,27.9l4.25,4.05c1.4,1.32,2.67,2.75,4,4.07s2.57,2.64,3.79,3.94l3.44,3.88c1.11,1.26,2.24,2.43,3.23,3.63L378,94.25l2.64,3.07Z"/><path class="cls-3" d="M86.8,64.42c-.37.4-.86.88-1.36,1.38l-.1.08C85.74,65.45,86.23,65,86.8,64.42Z"/><path class="cls-3" d="M420.15,157c.31,1.13.62,2.24.94,3.36-1.17-4.27-2.72-8.42-4.16-12.6l-.55-1.57-.62-1.54-1.24-3.08-1.25-3.09c-.41-1-.81-2.06-1.3-3.05.4.79.76,1.61,1.1,2.45l1.06,2.55q1,2.59,2.16,5.28c.67,1.81,1.29,3.68,1.95,5.56l1,2.84C419.55,155,419.88,156,420.15,157Z"/><path class="cls-3" d="M426.13,251.17,425,257.84c-.4,2.22-.93,4.42-1.39,6.63l-.72,3.31c-.22,1.1-.56,2.18-.84,3.27l-1.74,6.55c-.65,2.16-1.36,4.31-2,6.46l-1,3.23-1.18,3.17-2.37,6.35L411.07,303a203.3,203.3,0,0,1-16.75,30l-2.41,3.48c-.81,1.16-1.58,2.33-2.46,3.43l-5.1,6.63L379,352.93c-1.79,2.07-3.71,4-5.55,6a203.28,203.28,0,0,0,18.82-23.64l2.13-3.13,1.07-1.57,1-1.61,4-6.46c2.45-4.42,5-8.81,7.14-13.39A199.72,199.72,0,0,0,419,280.91c.39-1.21.83-2.41,1.17-3.63l1-3.69c.66-2.46,1.44-4.89,1.95-7.39l1.7-7.48Z"/><path class="cls-3" d="M412,159.91a195.44,195.44,0,0,1,4.51,21.14,196.66,196.66,0,0,0-5-21.06C412,161.26,411.86,160.09,412,159.91Z"/><path class="cls-3" d="M386.07,91.51c1.15,1.39,2.16,2.9,3.21,4.35l-2.09-2.76c-.72-.91-1.48-1.78-2.21-2.68l-4.46-5.31Z"/><path class="cls-3" d="M418.73,236q.33-4,.66-7.92.12-4,.26-7.92c0,1.57,0,3.13,0,4.7s.1,3.12,0,4.69C419.38,231.25,419.05,233.46,418.73,236Z"/><path class="cls-3" d="M395.07,314.31c-.9,1.58-1.7,3.2-2.65,4.72s-1.86,3-2.78,4.54c-.46.75-.92,1.49-1.37,2.24s-1,1.44-1.46,2.15c-1,1.43-1.94,2.84-2.89,4.23l3.49-5.26c1.18-1.76,2.21-3.63,3.32-5.44,2.27-3.6,4.18-7.42,6.22-11.13C396.16,312.13,395.54,313.53,395.07,314.31Z"/><path class="cls-2" d="M150.84,426.12l-3.61-1.35c1.18.35,2.64.82,4.3,1.37l2.62.88,2.9.86a257.23,257.23,0,0,1-29.92-11.82,244,244,0,0,1-29.54-16.72,228.11,228.11,0,0,1-26.06-20l-1.48-1.27-1.41-1.33-2.78-2.6-2.73-2.56c-.89-.86-1.73-1.74-2.58-2.6-1.68-1.73-3.37-3.38-4.93-5.05L51.13,359l-1.5-1.75-1.4-1.78-2.71-3.4c-.86-1.1-1.74-2.12-2.49-3.15l-2.16-2.87c-1.35-1.78-2.5-3.27-3.39-4.35a14.19,14.19,0,0,0-1.66-2c-.25-.18-.14.17.27,1,.2.4.48.91.83,1.53l1.32,2.07c1,1.56,2.3,3.46,3.79,5.62s3.35,4.43,5.28,6.92c.81,1.13,1.78,2.28,2.68,3.36s1.72,2.11,2.36,2.88l2.14,2.68,2.31,2.65c1.58,1.77,3.16,3.63,4.87,5.45L67,379.31c1.82,1.87,3.81,3.62,5.77,5.48a215.2,215.2,0,0,0,27.31,21.28c-1-.63-2-1.31-2.94-2L94.21,402c-1.95-1.4-3.92-2.78-5.74-4.27l2.09,1.61,2.17,1.52,4.38,3.05c1.46,1.06,3,2,4.6,3l4.88,3-2.19-1.62A192.34,192.34,0,0,0,140.13,426a185.64,185.64,0,0,0,33.07,9c8.33,1.16,11.06,1.17,8.78.29a71.13,71.13,0,0,0-7.08-2c-1.79-.39-3.83-1.06-6.17-1.67s-5-1.29-7.81-2.23C157.54,428.37,154.14,427.4,150.84,426.12Z"/><path class="cls-2" d="M111.42,405.84a220,220,0,0,0,37.29,17.89l2.51,1-.65-.91-.27,0-5-1.47-5.49-1.95c-3.87-1.3-7.92-3.12-12.22-4.91A221.31,221.31,0,0,1,102,401.67c-2-1.21-3.88-2.52-5.82-3.78l-3.47-2.2a19.9,19.9,0,0,0-1.83-1.11c-.74-.36.06.43,2,2s5,3.72,8.85,6.21l4.46,2.78c1.49.92,3,1.87,4.5,2.7a196.08,196.08,0,0,0,18.9,9.84l5.25,2.34c1.77.76,3.59,1.42,5.39,2.13s3.59,1.44,5.41,2l5.41,1.8a183,183,0,0,0,20.21,5.28l2.22.46c.73.14,1.45.24,2.14.35l4,.6c2.49.36,4.65.66,6.44.73,3.21.19.48-.52-.15-.91.51-.16-1.6-.59-5.34-1.5l-6.77-1.48c-2.58-.65-5.46-1.36-8.53-2.1s-6-1.68-8.71-2.41c-1.36-.35-2.64-.77-3.85-1.15l-3.42-1c-4.24-1.23-7-2.22-7.51-2.15-2-.81-4.06-1.61-6-2.46,1.57.6,3.19,1.15,4.8,1.72-.87-.23-2.2-.67-3.83-1.23s-3.51-1.4-5.55-2.24c-4.13-1.62-8.63-3.91-12.55-5.72-1.91-1-3.79-2-5.69-3.07L110,406.53c-.94-.52-1.85-1.1-2.78-1.65,1.88,1.6,3.86,3.06,5.84,4.54l3,1.58c1,.53,2,1.05,3,1.52l-1.22-.73A228.65,228.65,0,0,0,154.06,426c2.84.79,5.69,1.51,8.53,2.27,1.42.4,2.86.69,4.3,1l4.31.92c2.35.47,3.43.57,3.28.41a25.74,25.74,0,0,0-4-1.26l-3.76-1c-1.26-.33-2.52-.66-3.75-1.07,1.12.39,2.25.7,3.38,1a214.32,214.32,0,0,1-26-8.64c-4.31-1.62-8.43-3.66-12.58-5.5l-6-3.08-3-1.55-2.9-1.65c-2.41-1.42-5.45-3-6.73-3.7C108,403.58,108.91,404.39,111.42,405.84Z"/><path class="cls-2" d="M170.19,428.82c1.41.36,2.78.75,4.32,1.11s3.25.66,5.29,1l1.76.25L176,430c-2-.41-3.49-.82-4.48-1S170.09,428.72,170.19,428.82Z"/><path class="cls-2" d="M181.56,431.21l2.31.5-1.54-.38-.46-.08Z"/><path class="cls-2" d="M352.35,45.52a219.68,219.68,0,0,1,55,62.89,217.27,217.27,0,0,1,27.34,79,30.77,30.77,0,0,0,.55,3.51,20.69,20.69,0,0,0-.28-3.1,217.35,217.35,0,0,0-27.13-79.05,219.66,219.66,0,0,0-54.75-63,35.71,35.71,0,0,0-3-2.2A17.73,17.73,0,0,0,352.35,45.52Z"/><path class="cls-2" d="M332.14,397.49c1.07-.74,1-.77-.17-.08-1,.57-2.71,1.71-3.79,2.39s-.85.62.17.08S331.24,398.1,332.14,397.49Z"/><path class="cls-2" d="M339,387a180.24,180.24,0,0,0,16.12-13.16l1.37-1.19,1.24-1.12c-.39.22.59-.82,2.52-2.68a209.5,209.5,0,0,0,46.29-66.27,205.6,205.6,0,0,0,17.32-81,17.4,17.4,0,0,1-.18-2.34c-.29-3.83-.48-11.52-1.19-19.46-.08-1-.1-2-.22-3l-.35-3a199,199,0,0,0-7.28-35.63,206.34,206.34,0,0,0-13.56-33.68l-1.82-3.39c-.66-1.16-1.39-2.33-2.1-3.56-1.47-2.42-2.89-5.07-4.64-7.65a209.31,209.31,0,0,0-41.88-47c1,.93,1.53,1.53,1.46,1.59a20.83,20.83,0,0,1-2.86-2.12c-1.54-1.27-3.72-2.83-6-4.63-1.15-.88-2.25-1.83-3.45-2.65l-3.55-2.51a207.81,207.81,0,0,1,19.38,15.72L358,70.56a204.7,204.7,0,0,1,18.87,20.27c1.58,2,3.17,4,4.75,6l4.44,6.2c1.53,2,2.82,4.22,4.22,6.33l2.06,3.19c.68,1.06,1.28,2.17,1.92,3.26a195.77,195.77,0,0,1,13.37,26.9l1.39,3.47c.46,1.16,1,2.3,1.33,3.48l2.43,7c.44,1.16.74,2.36,1.1,3.55l1,3.56,1,3.56.86,3.6a198.24,198.24,0,0,1,5,29l.63,7.31c.13,2.43.18,4.88.27,7.31l.13,3.66-.05,3.65c-.06,2.43,0,4.87-.15,7.3a223.12,223.12,0,0,1-3.28,28.88,223.83,223.83,0,0,1-7.32,28,219,219,0,0,1-11.19,26.64c-.58,1.13-1.53,2.86-2.11,3.82-.41.63-.41.48.25-.77a201.13,201.13,0,0,0,13.34-32.75,196.26,196.26,0,0,0,7.28-33.82,211,211,0,0,0,1.44-35.6,208.38,208.38,0,0,0-5.12-38.09,203.65,203.65,0,0,0-16.22-45.08A201.7,201.7,0,0,0,338.18,58,205,205,0,0,0,295.87,34.4c-4-1.53-7.87-3.23-11.9-4.48-2-.66-4-1.37-6-2l-6.06-1.71-3-.85-3.06-.69-6.1-1.4c-2-.4-4.09-.73-6.14-1.09s-4.08-.77-6.14-1a204,204,0,0,0-49.37-.68,201.63,201.63,0,0,0-48.14,11.61c-3.86,1.59-7.8,3-11.58,4.86-1.91.89-3.84,1.73-5.73,2.67L127,42.58c-.93.5-1.89,1-2.81,1.49l-2.76,1.61c-1.83,1.09-3.69,2.12-5.51,3.25l-5.4,3.5c-.9.6-1.83,1.15-2.69,1.79l-2.63,1.89A202.48,202.48,0,0,0,78.71,78.65a198.54,198.54,0,0,0-21.89,26.49,201.89,201.89,0,0,0-16.91,29.54l-1.74,3.87c-.57,1.29-1.2,2.56-1.68,3.89l-3.09,7.89-2.69,8c-.87,2.68-1.55,5.42-2.34,8.12a204.33,204.33,0,0,0-5.94,33.19l-.63,8.42-.2,8.44c-.06,1.41,0,2.82,0,4.23l.11,4.22c0,2.82.29,5.63.47,8.44a197.44,197.44,0,0,0,16.59,65.48c1.86,3.85,3.58,7.7,5.57,11.32s3.93,7.17,5.87,10.56c.47.85,1,1.68,1.5,2.48l1.52,2.41c1,1.57,1.92,3.18,3,4.64l2.95,4.32,1.4,2.08c.48.66,1,1.3,1.44,1.94,3.68,5.16,7.1,9.37,9.61,12.65a52.69,52.69,0,0,1,4.86,6.47c.63,1.21-.56.55-3.14-1.72-.64-.56-1.38-1.22-2.2-2s-1.75-1.59-2.67-2.58l-3-3.21c-1.08-1.15-2.26-2.37-3.38-3.77.44.56.86,1.14,1.32,1.68l1.38,1.62L67.51,351c1.41,1.75,3,3.37,4.47,5s3,3.35,4.62,4.91c4.46,4.57,8.79,8.6,12.65,12.07l5.41,4.75,4.53,3.77c2.4,2.09,5,4,7.47,5.9s5.48,4.07,8.64,6.34c.79.57,1.61,1.11,2.45,1.63l2.54,1.61,2.56,1.63c.85.55,1.71,1.08,2.59,1.57,3.51,2,6.91,4,10.15,5.65l4.53,2.42,3.93,2-2.34-.47,2.27,1,5.19,2.24c1.59.63,3,1.2,4.24,1.71,2.46,1,4.16,1.84,5,2.26l-.91.25a24.34,24.34,0,0,1-4.45-.62,74.55,74.55,0,0,1-7.94-2c.14.28-.68.18-2.38-.27,5.15,2.57,7.59,3.92,3.09,2.92,1.59.72,2.27,1,2,1a5.29,5.29,0,0,1-1-.22c-.55-.17-1.33-.43-2.3-.78-1.35-.48-3-1.08-4.62-1.71l0,0,4.62,2.12,2.15.87,1.62.57,1.36.48c4.36,1.51,6.53,2.29,8.61,2.86s4,1.22,7.83,2.28c3.33.87,6,1.62,7.88,2.14.92.28,1.66.41,2.15.54l.75.18c7.35,2.27,7.38,2.27,6.14,2.43l-1.48-.17c3,.67,4.64.86,5.71,1l2.4.4,2.89.55c.24.23.24.23,1.27.45.33.13.24.19.24.19-3.44-.25-3.44-.25-3.54-.2l-1.94-.16-4.4-.54-1.88-.31L175,429.47l-.93-.24-.13,0-1.88-.26-1.91-.7,1.07.48-4.24-1.14,4.83,1.34c-5-1.23-7.56-1.81-9.29-2.37l-4.74-1.35c-1-.31-2-.58-2.95-.87l-2.47-.82-2.63-.85c.31.18.32.23.32.23-5.27-1.74-7.79-2.91-10.35-3.88-1.26-.53-2.55-1-4.09-1.69l-5.85-2.64c-.89-.45-1.6-.8-2.25-1.17-.95-.41-2.82-1.29-4.72-2.26-1.68-.87-3.4-1.65-5-2.61l-1.07-.56a0,0,0,0,0,0,0l-4.23-2.23-.88-.46,0,0c-1.47-.74-3.18-1.82-5.94-3.41S99.1,398,93.8,394.56l-7.51-5.73,2.14,1.73c1.38,1.11,0,.3.73.89a207.59,207.59,0,0,0,31,20,215.74,215.74,0,0,0,35.36,14.73c4.43,1.23,8.53,2.56,9.16,2.84s-2.67-.4-7.21-1.69a205.25,205.25,0,0,1-38.19-14.67c-1.61-.75-3.15-1.64-4.73-2.48l-4.71-2.57c-3.11-1.8-6.17-3.71-9.27-5.6s-6-4-9-6.14l-4.4-3.26L85,391c-.73-.56-1.42-1.15-2.14-1.73a213.8,213.8,0,0,1-31.06-30.56A209.71,209.71,0,0,1,28.5,324.1a218.7,218.7,0,0,1-16.58-39c.17.67.34,1.32.51,2l-1.58-5.28c-.52-1.76-1.06-3.51-1.47-5.3l-.3-1.15c.32,1.36.56,2.74.93,4.08s.72,2.68,1.07,4c.56,1.84,1.05,3.7,1.67,5.54a233.07,233.07,0,0,0,19.92,43.36,221.42,221.42,0,0,0,28.24,37.54c1.43,1.61,2.94,3.09,4.41,4.56l4.35,4.36,4.43,4.08,2.19,2c.73.67,1.5,1.28,2.24,1.93L83,390.68c.74.65,1.5,1.26,2.29,1.85l2.34,1.81c1.56,1.2,3.11,2.44,4.73,3.62l4.95,3.48,2.36,1.64,1.83,1.21c1,.67,1.46,1,1.21,1a25.42,25.42,0,0,1-2.56-1.38c-1.34-.8-3-1.94-4.7-3.09a217.15,217.15,0,0,1-32.33-26.61,212,212,0,0,1-26.81-32.71C20.88,318.29,11.08,293.26,6.54,272c-.67-2.38-1.16-4.79-1.65-7.15q-.36-1.77-.72-3.51c-.24-1.16-.47-2.3-.63-3.45-.69-4.56-1.41-8.86-1.68-12.81,0-.14,0-.3-.05-.44.07,1,.14,2,.21,3s.14,2,.28,3c-.91-7.34-1.17-11.29-1.47-18-.07.79-.16,1.73-.23,2.51-.14-2.27-.31-4.56-.42-6.86s-.09-4.61-.13-6.93c0-1.16-.06-2.32,0-3.48l.1-3.49.21-7A224.39,224.39,0,0,1,3.6,179.58a215.43,215.43,0,0,1,6.65-26.74,207.14,207.14,0,0,1,9.67-24.37l1.64-3.53A197.23,197.23,0,0,1,45.23,85.06C43.36,87.3,41.75,89.7,40,92L37.5,95.55c-.8,1.21-1.59,2.43-2.39,3.65A202.27,202.27,0,0,1,58.46,68.78l4.75-5c1.59-1.65,3.32-3.19,5-4.8,3.3-3.24,6.91-6.18,10.41-9.18.86-.77,1.78-1.46,2.69-2.16L84,45.58l2.71-2.07,1.35-1,1.39-1c3.7-2.55,7.27-5.13,11-7.3l5.37-3.3L111.12,28l2.57-1.4,1.26-.68,1.28-.62L121.16,23c3.16-1.58,6.23-2.78,9-3.91l4-1.6c1.28-.46,2.49-.85,3.63-1.24l6.09-2.41c2.06-.75,4.14-1.42,6.21-2.14,4.11-1.49,8.34-2.61,12.55-3.82,2.09-.65,4.23-1.09,6.36-1.59l6.39-1.49,6.46-1.16c2.16-.38,4.3-.82,6.48-1.05a226.38,226.38,0,0,1,52.35-1.26,220.83,220.83,0,0,1,51.16,11.25c2.09.66,4.12,1.48,6.16,2.27l6.11,2.4,6,2.68c2,.89,4,1.76,5.93,2.79l5.85,3,1.46.75,1.42.81,2.85,1.63c1.89,1.1,3.82,2.12,5.67,3.29l5.54,3.52L341,37.06c.69.46,1.29.93,1.83,1.33A26.29,26.29,0,0,1,344.9,40c.22.33-1.75-1-4.75-3A219.82,219.82,0,0,0,271.22,7.19c-3.08-.68-6.15-1.44-9.25-2l-9.34-1.62c-3.14-.42-6.28-.78-9.42-1.17-1.57-.22-3.15-.32-4.72-.43l-4.74-.34a226.72,226.72,0,0,0-37.93.89,220.89,220.89,0,0,1,63.45,2.77,208.73,208.73,0,0,1,31,8.32,211.12,211.12,0,0,1,29.64,12.91c2.48,1.2,4.86,2.63,7.28,4l3.61,2.07c1.22.68,2.36,1.47,3.55,2.2,2.31,1.5,4.65,2.92,6.89,4.49L347.85,44A218.13,218.13,0,0,1,432.64,180.3c.27,1.48.55,3,.82,4.43s.41,3,.61,4.43.39,3,.59,4.41l.29,2.2c.09.73.13,1.46.19,2.19q.36,4.39.72,8.73c.13,2.9.19,5.79.29,8.66a215.2,215.2,0,0,1-9.26,67.39c-.88,2.74-1.68,5.52-2.65,8.26l-3,8.22-3.43,8.18c-.55,1.38-1.22,2.71-1.86,4.07s-1.29,2.7-1.94,4.07c-.47.95-.9,1.92-1.39,2.85l-1.5,2.79c-1,1.86-2,3.71-3,5.56l-3.21,5.4c-1.07,1.79-2.12,3.59-3.29,5.31s-2.29,3.46-3.43,5.19c-.56.87-1.16,1.71-1.78,2.54l-1.82,2.51c-1.23,1.65-2.4,3.35-3.68,5s-2.57,3.21-3.85,4.81a214.27,214.27,0,0,1-34.84,34c-3.14,2.56-6.48,4.84-9.78,7.2-1.62,1.21-3.35,2.27-5.05,3.38l-5.11,3.29L327,408.41c-1.76,1-3.49,2.08-5.32,3-3.62,1.86-7.19,3.82-10.94,5.46a210.75,210.75,0,0,1-47.06,15.61l-6.37,1.22c-1,.2-2,.33-2.92.44l-2.65.33a46.91,46.91,0,0,1-6.16.51c-.55-.08.77-.41,3.33-.9s6.37-1,10.74-1.95l6.41-1.3,6.35-1.6,3.17-.8c1.05-.27,2.09-.62,3.13-.92l6.26-1.9A217.3,217.3,0,0,0,309.23,416a219.59,219.59,0,0,0,22.93-12.32l5.46-3.54c.9-.6,1.83-1.16,2.71-1.79l2.65-1.88,5.28-3.8,5.11-4,2.55-2,2.46-2.12,4.92-4.25,4.73-4.46,2.36-2.23c.77-.76,1.51-1.55,2.27-2.33l4.51-4.67c1.47-1.59,2.88-3.24,4.32-4.86,2.93-3.19,5.54-6.66,8.28-10a219.73,219.73,0,0,0,14.62-21.5l1.67-2.79.83-1.4.77-1.43,3.09-5.74c1.07-1.89,1.93-3.89,2.89-5.83s1.93-3.9,2.77-5.91c1.67-4,3.48-8,4.91-12.08.74-2.05,1.54-4.08,2.23-6.14l2-6.23c.32-1,.67-2.08,1-3.12l.84-3.16,1.68-6.33,1.38-6.4.69-3.21c.23-1.06.38-2.15.57-3.23l1.07-6.47c.36-2.16.54-4.34.82-6.51l.38-3.27.19-1.63.12-1.64.45-6.56c.19-2.19.19-4.39.25-6.58l.12-6.59-.19-6.6c-.07-2.2-.09-4.4-.31-6.6-.36-4.39-.61-8.8-1.27-13.18-.29-2.19-.55-4.38-.87-6.57l-1.18-6.54-.59-3.28c-.21-1.08-.49-2.16-.73-3.24l-1.51-6.49c-.5-2.17-1.19-4.29-1.78-6.44l-.92-3.21-.46-1.61-.53-1.58c-1.46-4.22-2.77-8.49-4.5-12.62-.84-2.08-1.62-4.18-2.5-6.24L415,127.65l-1.4-3.07-1.53-3-3.08-6-3.36-5.87-1.69-2.94c-.57-1-1.2-1.91-1.81-2.87A219.07,219.07,0,0,0,373.6,67.58c.11.18.21.34.18.37s-1.21-.86-3-2.47a219,219,0,0,1,32.15,41,215.5,215.5,0,0,1,27.28,67.82,217.91,217.91,0,0,1,4.44,37.22,212.55,212.55,0,0,1-2.18,38.31,215.18,215.18,0,0,1-13.83,49.45,219.6,219.6,0,0,1-24.1,43,216,216,0,0,1-97.09,76.62,30.61,30.61,0,0,1-3.8,1.39c-.59.13.26-.17,1.83-.83A219.35,219.35,0,0,0,369,371.33c-3.56,3.09-5.78,4.8-5.69,4.34a10.44,10.44,0,0,1,1.81-2.22c1.11-1.22,2.75-2.81,4.6-4.89-4.75,4.76-9.74,9.27-14.91,13.56-1.56,1.37-3.08,2.45-4.14,3.23a8.2,8.2,0,0,1-1.73,1.12,9.8,9.8,0,0,1,1.64-1.51c1-.86,2.45-2,3.93-3.26a213.64,213.64,0,0,0,51.68-63c2-3.57,3.68-7.32,5.48-11,.91-1.84,1.64-3.76,2.46-5.63s1.65-3.75,2.35-5.67l2.14-5.75c.34-1,.72-1.91,1-2.88l.93-2.93,1.85-5.84c.57-2,1.07-4,1.6-5.93,1.14-3.93,1.91-7.94,2.79-11.94.48-2,.76-4,1.11-6l1-6,.72-6.1c.23-2,.52-4.06.62-6.11.26-4.08.65-8.16.65-12.26a58.69,58.69,0,0,1-1.16,9.41h0c-.25,5.06-1,10.05-1.57,15.05a209.5,209.5,0,0,1-62.62,122.62A209.86,209.86,0,0,1,238,429.65a27.15,27.15,0,0,1-3.45.22,18.3,18.3,0,0,1,3.08-.41,210.16,210.16,0,0,0,82.19-24.53l-.1.05c-1,.5-1.28.53-.17-.09s2.91-1.69,3.92-2.21c1.17-.62,1.1-.5.18.08a210.7,210.7,0,0,0,97-120.88,208.26,208.26,0,0,1-33.29,64.31,211.77,211.77,0,0,1-53.08,49.17c-2.22,1.44-4.38,2.95-6.65,4.33l-6.87,4.08a36.6,36.6,0,0,1-3.55,1.77c-.38.14.54-.41,1.86-1.11s2.57-1.48,3.85-2.22c-8,4.49-14.55,7.2-14.56,6.8a50.15,50.15,0,0,1,4.81-2.8c1.4-.78,3.06-1.68,4.89-2.66l1.4-.74,1.43-.84,3-1.73a211.88,211.88,0,0,0,57.49-48.88c1.69-2.14,3.47-4.22,5-6.46s3.22-4.44,4.73-6.73A227.92,227.92,0,0,1,372.62,361a234.35,234.35,0,0,1-21.5,20,231.31,231.31,0,0,1-24,16.7,225.79,225.79,0,0,1-26,13.16,45.93,45.93,0,0,1-5.87,2.13,38.76,38.76,0,0,1,5.44-2.42,210.19,210.19,0,0,0,80.81-62l2-2.51c.66-.86,1.28-1.74,1.92-2.6l3.82-5.2,3.58-5.38,1.79-2.68,1.66-2.77,3.33-5.54,3.07-5.69,1.53-2.84,1.4-2.92,2.8-5.83,2.53-5.95c.42-1,.86-2,1.26-3l1.13-3,2.24-6.07,2-6.17,1-3.08.83-3.13,1.67-6.26,1.38-6.33.68-3.16.54-3.19.62-4.21c.21-1.4.43-2.81.54-4.22.27-2.82.55-5.65.82-8.47s.28-5.67.43-8.51c.1-1.42.06-2.84.07-4.26v-4.27a218.18,218.18,0,0,0-3-34.13c.36,2.87.72,5.78,1.08,8.69.18,1.15.25,2.32.34,3.47s.18,2.31.26,3.46c.16,2.31.43,4.59.44,6.88s.13,4.57.19,6.84l0,1.7,0,1.7c0,1.13-.05,2.26-.07,3.38l-.06,3.38,0,1.68-.1,1.67c-.15,2.24-.3,4.46-.45,6.68l-.11,1.66-.18,1.65c-.13,1.1-.26,2.2-.38,3.29l-.37,3.29-.19,1.64-.26,1.63a207.24,207.24,0,0,1-13.75,49.9,204.09,204.09,0,0,1-62.58,82.61,31.46,31.46,0,0,1-2.89,2.11,14.67,14.67,0,0,1,2.21-1.86A204.31,204.31,0,0,0,382.36,346a209.44,209.44,0,0,0,14.14-21.08c2.24-3.62,4.14-7.46,6.18-11.25,1-1.91,1.87-3.89,2.81-5.84s1.89-3.92,2.7-6a203.56,203.56,0,0,0,16.65-81.13,208.05,208.05,0,0,1-16.27,79,206,206,0,0,1-45.2,66.66c-1.73,1.65-3.51,3.27-4.67,4.26a8.79,8.79,0,0,1-.92,1c-1.2,1.23-2.55,2.34-3.87,3.53l-4.07,3.59c-1.41,1.17-2.88,2.32-4.34,3.5l-2.22,1.77-1.11.88-1.16.84c-1.17.86-2.7,1.9-3.36,2.29S337.69,387.93,339,387ZM36.56,329.79c.25.49.47.89.68,1.25-.79-1.32-1.55-2.78-2.45-4.36l-.39-.79L33.48,324c-.43-.88-1-2-1.72-3.65l.39.83c.23.53.6,1.26,1.06,2.13C34.13,325.11,35.35,327.45,36.56,329.79ZM97,391.72l0,0,3.14,2.46ZM237,2.59a222.88,222.88,0,0,0-89.21,10.9c3.48-1.17,6.92-2.45,10.47-3.39s7-2.09,10.63-2.86L173,6.31c1.39-.32,2.79-.64,4.2-.85L185.65,4c5.67-.7,11.33-1.5,17-1.78,2.85-.2,5.69-.43,8.55-.43s5.72-.13,8.58-.11l8.57.28c.72,0,1.43,0,2.15.08l2.14.18ZM72.34,376.39c-2.79-2.85-5.24-5.42-7.44-7.85s-4.08-4.79-5.94-7l-5.25-6c-1.77-2.05-3.4-4.26-5.12-6.43l-1.7-2.19-1.61-2.26-3.19-4.5c-2.07-3-4-6.13-6-9.17-1.8-3.15-3.68-6.23-5.38-9.39l-2.48-4.77L27,314.39c-.41-.8-.76-1.62-1.14-2.42.63,1.75-.81-1.35-1.57-2.92s-1.6-3.21-2.27-4.86A215.37,215.37,0,0,0,44.5,344.24,220.53,220.53,0,0,0,72.34,376.39ZM165,426.52l1.25.36-.36-.05c-.35-.05-1.06-.13-2.46-.42C163.38,426.41,164.06,426.48,165,426.52Zm4.46.61-2.11-.53A8,8,0,0,1,169.41,427.13Zm-19.06-5.81c1.1.44,1.76.71,2.63,1ZM140,409.44l-7.38-1.86c2.68.72,5.33,1.49,8,2.15Z"/></g><g id="Buddha_s_Bazaar" data-name="Buddha s Bazaar" class="cls-4"><text class="cls-5" transform="translate(47.76 238.71)">Buddh<tspan class="cls-6" x="137.7" y="0">a</tspan><tspan class="cls-7" x="161.84" y="0">&apos;</tspan><tspan x="173.07" y="0">s Bazaar</tspan></text></g><g id="Layer_2-2" data-name="Layer 2" class="cls-8"><g id="Layer_1-3" data-name="Layer 1"><circle id="Ellipse_3" data-name="Ellipse 3" class="cls-9" cx="226.16" cy="227.56" r="85.45"/></g></g></g></g></svg>