<svg xmlns="http://www.w3.org/2000/svg" xmlns:xlink="http://www.w3.org/1999/xlink" viewBox="0 0 178.48 174.74"><defs><style>.cls-1,.cls-2{fill:#262262;}.cls-1,.cls-2,.cls-3{stroke:#e5b738;stroke-miterlimit:10;}.cls-2{stroke-width:0;}.cls-3{fill:url(#linear-gradient);}</style><linearGradient id="linear-gradient" x1="43.68" y1="88.95" x2="134.8" y2="88.95" gradientUnits="userSpaceOnUse"><stop offset="0" stop-color="#fff"/><stop offset="0.55" stop-color="#4d91bc"/><stop offset="1" stop-color="#4d91bc"/></linearGradient></defs><g id="Layer_2" data-name="Layer 2"><g id="Layer_1-2" data-name="Layer 1"><path class="cls-1" d="M158.84,74.14c-4.66-8.52-11-8.59-16.57-7,5-2.81,9.37-7.36,6.66-16.63-4.38-15,.77-21.71.77-21.71s-6.76,5.15-21.72.77c-10.06-2.95-14.57,2.49-17.32,8,1.93-5.81,2.59-12.84-6.61-17.88C90.37,12.15,89.24,3.74,89.24,3.74S88.1,12.15,74.43,19.63c-9.2,5-8.55,12.07-6.62,17.88-2.74-5.47-7.25-10.91-17.32-8-15,4.38-21.71-.77-21.71-.77s5.15,6.75.77,21.71c-2.71,9.27,1.67,13.82,6.66,16.63-5.54-1.57-11.91-1.5-16.58,7C12.15,87.81,3.74,89,3.74,89s8.41,1.13,15.89,14.81c6.1,11.14,15.13,7.83,21.37,5.3a52.25,52.25,0,1,1,96.48,0c6.24,2.53,15.27,5.84,21.36-5.3C166.33,90.08,174.74,89,174.74,89S166.33,87.81,158.84,74.14Z"/><path class="cls-2" d="M137.47,109.08a52.26,52.26,0,0,1-96.46,0c-6.21,2.63-15,6.64-11.46,18.9,4.38,15-.77,21.72-.77,21.72s6.75-5.15,21.71-.77c10.07,2.95,14.58-2.49,17.32-8-1.93,5.81-2.58,12.85,6.62,17.88,13.67,7.49,14.81,15.9,14.81,15.9s1.13-8.41,14.81-15.9c9.2-5,8.54-12.07,6.61-17.88,2.75,5.48,7.26,10.92,17.32,8,15-4.38,21.72.77,21.72.77s-5.15-6.76-.77-21.72C152.52,115.72,143.67,111.71,137.47,109.08Z"/><path class="cls-3" d="M131.47,71.82a45.57,45.57,0,1,0-84.29,34.67v0a45.57,45.57,0,0,0,84.11,0v0a45.71,45.71,0,0,0,.17-34.67Zm-4.22,33h0a41.18,41.18,0,0,1-76,0h0a41.17,41.17,0,1,1,76,0Z"/></g></g></svg>