<svg xmlns="http://www.w3.org/2000/svg" xmlns:xlink="http://www.w3.org/1999/xlink" viewBox="0 0 63.26 63.26"><defs><style>.cls-1{fill:url(#linear-gradient);}.cls-2{fill:url(#linear-gradient-2);}</style><linearGradient id="linear-gradient" x1="31.13" y1="13.24" x2="35.62" y2="13.24" gradientUnits="userSpaceOnUse"><stop offset="0" stop-color="#fff"/><stop offset="0.52" stop-color="#56aade"/><stop offset="0.6" stop-color="#55a7db"/><stop offset="0.66" stop-color="#519fd0"/><stop offset="0.72" stop-color="#4a92be"/><stop offset="0.78" stop-color="#407ea5"/><stop offset="0.84" stop-color="#336685"/><stop offset="0.89" stop-color="#24475d"/><stop offset="0.95" stop-color="#12242f"/><stop offset="0.99"/></linearGradient><linearGradient id="linear-gradient-2" x1="15.8" y1="32.16" x2="62.28" y2="32.16" xlink:href="#linear-gradient"/></defs><g id="Layer_2" data-name="Layer 2"><g id="Layer_1-2" data-name="Layer 1"><path d="M60.78,19.32a32.54,32.54,0,0,0-2.92-5.38A31.56,31.56,0,0,0,43.94,2.49a31.67,31.67,0,0,0-24.62,0A31.56,31.56,0,0,0,2.49,19.32a31.68,31.68,0,0,0,2.91,30,31.74,31.74,0,0,0,8.54,8.54,31.68,31.68,0,0,0,17.69,5.4,31.68,31.68,0,0,0,17.69-5.4A31.73,31.73,0,0,0,60.78,43.94a31.79,31.79,0,0,0,0-24.62Zm-29.15,43A30.64,30.64,0,1,1,62.28,31.63,30.64,30.64,0,0,1,31.63,62.27Z"/><path class="cls-1" d="M35.62,13.25A2.25,2.25,0,1,1,33.38,11,2.25,2.25,0,0,1,35.62,13.25Z"/><path class="cls-2" d="M39.64,2c17.17,7.61,13,29.32-5.1,29.32C10.46,29.78,11,57.91,28.1,62.08a31.72,31.72,0,0,0,3.53.19A30.65,30.65,0,0,0,39.64,2ZM34.45,49.21A2.25,2.25,0,1,1,36.69,47,2.24,2.24,0,0,1,34.45,49.21Z"/></g></g></svg>