<svg xmlns="http://www.w3.org/2000/svg" xmlns:xlink="http://www.w3.org/1999/xlink" viewBox="0 0 57.81 87.87"><defs><style>.cls-1,.cls-2{stroke:#231f20;stroke-miterlimit:10;}.cls-1{fill:url(#radial-gradient);}.cls-2{fill:url(#radial-gradient-2);}</style><radialGradient id="radial-gradient" cx="43.29" cy="43.85" r="31.7" gradientUnits="userSpaceOnUse"><stop offset="0.36" stop-color="#fff"/><stop offset="0.56" stop-color="#00aeef"/><stop offset="0.68" stop-color="#2e3192" stop-opacity="0.99"/><stop offset="1"/></radialGradient><radialGradient id="radial-gradient-2" cx="14.57" cy="44.02" r="31.71" xlink:href="#radial-gradient"/></defs><g id="Layer_2" data-name="Layer 2"><g id="Layer_1-2" data-name="Layer 1"><path class="cls-1" d="M50.88,53.41,40.73,43.26,52.14,31.71l2.62-5.84L30.09,1.2l-.6,85.31L42.27,74,54.73,62l2.37-2.37ZM38.51,68.23V19.92l8.13,7.32L39.88,43.33l6.76,17.15Z"/><path class="cls-2" d="M.71,59.46l2.34,2.4L15.36,74.05,28,86.67l.44-85.31-25,24.37L6,31.6,17.28,43.29,7,53.32Zm10.45,1,7-17.07L11.56,27.2,19.78,20l-.59,48.31Z"/></g></g></svg>