<svg xmlns="http://www.w3.org/2000/svg" xmlns:xlink="http://www.w3.org/1999/xlink" viewBox="0 0 59.56 87.71"><defs><style>.cls-1,.cls-2{stroke:#231f20;stroke-miterlimit:10;}.cls-1{fill:url(#radial-gradient);}.cls-2{fill:url(#radial-gradient-2);}</style><radialGradient id="radial-gradient" cx="45.05" cy="43.85" r="31.7" gradientUnits="userSpaceOnUse"><stop offset="0.36" stop-color="#fff"/><stop offset="0.63" stop-color="#00aeef"/><stop offset="0.68" stop-color="#2e3192" stop-opacity="0.99"/><stop offset="1"/></radialGradient><radialGradient id="radial-gradient-2" cx="14.57" cy="43.85" r="31.71" xlink:href="#radial-gradient"/></defs><g id="Layer_2" data-name="Layer 2"><g id="Layer_1-2" data-name="Layer 1"><path class="cls-1" d="M52.63,53.41,42.48,43.26,53.89,31.71l2.62-5.84L31.84,1.2l-.6,85.31L44,74,56.48,62l2.37-2.37ZM40.26,68.23V19.92l8.13,7.32L41.63,43.33l6.76,17.15Z"/><path class="cls-2" d="M.71,59.29l2.34,2.4,12.31,12.2L28,86.51,28.43,1.2l-25,24.37L6,31.44,17.28,43.13,7,53.15Zm10.45,1,7-17.06L11.56,27l8.22-7.22-.59,48.31Z"/></g></g></svg>