<svg xmlns="http://www.w3.org/2000/svg" viewBox="0 0 22.15 22.15"><g id="Layer_2" data-name="Layer 2"><g id="Layer_1-2" data-name="Layer 1"><path d="M11.07,7.81a3.26,3.26,0,1,0,3.26,3.26A3.26,3.26,0,0,0,11.07,7.81Zm0,6a2.69,2.69,0,1,1,2.69-2.69A2.69,2.69,0,0,1,11.07,13.76Z"/><path d="M12.69,2.49V8.24a3.05,3.05,0,0,1,.61.46V2.49ZM11.41,7.83A3.14,3.14,0,0,1,12,8V0h-.61ZM10.13,22.15h.61V14.32a3.87,3.87,0,0,1-.61-.13Zm1.28,0H12v-8a4.13,4.13,0,0,1-.61.13Zm1.28-2.5h.61v-6.2a3.43,3.43,0,0,1-.61.45ZM8.85,8.7a2.79,2.79,0,0,1,.61-.46V2.49H8.85Zm0,11h.61V13.9a3.11,3.11,0,0,1-.61-.45ZM10.13,8a3,3,0,0,1,.61-.12V0h-.61Z"/><path d="M19.65,9.46V8.85h-6.2a2.75,2.75,0,0,1,.45.61Z"/><path d="M8.7,8.85H2.5v.61H8.24A2.79,2.79,0,0,1,8.7,8.85Z"/><path d="M13.45,13.3h6.2v-.61H13.9A3,3,0,0,1,13.45,13.3Z"/><path d="M14.19,12h8v-.61H14.32A3.15,3.15,0,0,1,14.19,12Z"/><path d="M14.19,10.13a3.87,3.87,0,0,1,.13.61h7.83v-.61Z"/><path d="M8,10.13H0v.61H7.83A3,3,0,0,1,8,10.13Z"/><path d="M2.5,12.69v.61H8.7a3.05,3.05,0,0,1-.46-.61Z"/><path d="M7.83,11.41H0V12H8A3.14,3.14,0,0,1,7.83,11.41Z"/></g></g></svg>