<svg xmlns="http://www.w3.org/2000/svg" viewBox="0 0 22.2 22.2"><defs><style>.cls-1{fill:#e5b738;}.cls-2{fill:#262262;}</style></defs><g id="Layer_2" data-name="Layer 2"><g id="Layer_1-2" data-name="Layer 1"><path class="cls-1" d="M13.8,11.1a2.7,2.7,0,1,1-2.7-2.7A2.69,2.69,0,0,1,13.8,11.1Z"/><path class="cls-2" d="M12.7,2.5V8.3a2.65,2.65,0,0,1,.6.5V2.6h-.6ZM11.4,7.9c.2,0,.4.1.6.1V0h-.6ZM10.1,22.2h.6V14.4c-.2,0-.4-.1-.6-.1Zm1.3,0H12v-8a1.27,1.27,0,0,1-.6.1Zm1.3-2.5h.6V13.5c-.2.2-.4.3-.6.5ZM8.9,8.7c.2-.2.4-.3.6-.5V2.4H8.9Zm0,11h.6V13.9a2.65,2.65,0,0,1-.6-.5ZM10.1,8a1.27,1.27,0,0,1,.6-.1V.1h-.6Z"/><path class="cls-2" d="M19.7,9.5V8.9H13.5c.2.2.3.4.5.6Z"/><path class="cls-2" d="M8.7,8.9H2.5v.6H8.2C8.4,9.3,8.5,9.1,8.7,8.9Z"/><path class="cls-2" d="M13.5,13.3h6.2v-.6H14A2.65,2.65,0,0,0,13.5,13.3Z"/><path class="cls-2" d="M14.2,12h8v-.6H14.4C14.3,11.6,14.3,11.8,14.2,12Z"/><path class="cls-2" d="M14.2,10.1a1.27,1.27,0,0,1,.1.6h7.8v-.6Z"/><path class="cls-2" d="M8,10.1H0v.6H7.8C7.9,10.6,7.9,10.3,8,10.1Z"/><path class="cls-2" d="M2.5,12.7v.6H8.7c-.2-.2-.3-.4-.5-.6Z"/><path class="cls-2" d="M7.8,11.4H0V12H8C7.9,11.8,7.9,11.6,7.8,11.4Z"/></g></g></svg>