<svg xmlns="http://www.w3.org/2000/svg" xmlns:xlink="http://www.w3.org/1999/xlink" viewBox="0 0 63.26 63.26"><defs><style>.cls-1{fill:url(#blue);}.cls-2{fill:url(#blue-2);}</style><linearGradient id="blue" x1="30.51" y1="12.87" x2="34.99" y2="12.87" gradientTransform="translate(0.9 0.11) rotate(0.49)" gradientUnits="userSpaceOnUse"><stop offset="0.02" stop-color="#fff"/><stop offset="0.2" stop-color="#262262"/></linearGradient><linearGradient id="blue-2" x1="15.18" y1="31.78" x2="61.65" y2="31.78" xlink:href="#blue"/></defs><g id="Layer_2" data-name="Layer 2"><g id="Layer_1-2" data-name="Layer 1"><path d="M60.88,19.57A31.62,31.62,0,0,0,54.19,9.46a30.91,30.91,0,0,0-4.65-3.9,31.66,31.66,0,0,0-30-3.18A31.62,31.62,0,0,0,9.46,9.07,31.63,31.63,0,0,0,13.72,57.7a31.66,31.66,0,0,0,30,3.18A31.06,31.06,0,0,0,49.09,58,31.65,31.65,0,0,0,60.67,44.19a31.73,31.73,0,0,0,.21-24.62ZM31.37,62.27A30.64,30.64,0,1,1,62.28,31.89,30.63,30.63,0,0,1,31.37,62.27Z"/><path class="cls-1" d="M35.78,13.28A2.25,2.25,0,1,1,33.55,11,2.25,2.25,0,0,1,35.78,13.28Z"/><path class="cls-2" d="M39.89,2.11C57,9.87,52.7,31.54,34.55,31.38,10.48,29.6,10.79,57.74,27.84,62a29.34,29.34,0,0,0,3.53.23A30.65,30.65,0,0,0,39.89,2.11ZM34.3,49.23A2.25,2.25,0,1,1,36.56,47,2.24,2.24,0,0,1,34.3,49.23Z"/></g></g></svg>